<mxfile host="Electron" modified="2023-10-22T05:06:40.571Z" agent="Mozilla/5.0 (Windows NT 10.0; Win64; x64) AppleWebKit/537.36 (KHTML, like Gecko) draw.io/22.0.2 Chrome/114.0.5735.289 Electron/25.8.4 Safari/537.36" etag="S1E5noSg-mvuTctUe312" version="22.0.2" type="device">
  <diagram name="Page-1" id="8NFknZyKEnplfb44EFH1">
    <mxGraphModel dx="12180" dy="3030" grid="0" gridSize="10" guides="1" tooltips="1" connect="1" arrows="1" fold="1" page="1" pageScale="1" pageWidth="7000" pageHeight="7000" math="0" shadow="0">
      <root>
        <mxCell id="0" />
        <mxCell id="1" parent="0" />
        <mxCell id="GA2vL-Xrcvd5V2LU-57q-48" style="rounded=0;orthogonalLoop=1;jettySize=auto;html=1;labelBackgroundColor=default;strokeColor=default;strokeWidth=5;align=center;verticalAlign=middle;fontFamily=Helvetica;fontSize=40;fontColor=default;startArrow=none;endArrow=classic;startFill=0;exitX=0;exitY=1;exitDx=0;exitDy=0;entryX=0.028;entryY=0.354;entryDx=0;entryDy=0;entryPerimeter=0;" parent="1" source="GA2vL-Xrcvd5V2LU-57q-1" target="GA2vL-Xrcvd5V2LU-57q-46" edge="1">
          <mxGeometry relative="1" as="geometry">
            <mxPoint x="-4985" y="1891" as="sourcePoint" />
            <mxPoint x="-4295" y="3315" as="targetPoint" />
          </mxGeometry>
        </mxCell>
        <mxCell id="GA2vL-Xrcvd5V2LU-57q-49" value="Thông tin người dùng" style="edgeLabel;html=1;align=center;verticalAlign=middle;resizable=0;points=[];fontSize=40;fontFamily=Helvetica;fontColor=default;rotation=60;" parent="GA2vL-Xrcvd5V2LU-57q-48" vertex="1" connectable="0">
          <mxGeometry x="-0.0888" y="-4" relative="1" as="geometry">
            <mxPoint x="241" y="600" as="offset" />
          </mxGeometry>
        </mxCell>
        <mxCell id="GA2vL-Xrcvd5V2LU-57q-1" value="Khách hàng" style="html=1;dashed=0;whiteSpace=wrap;fontSize=40;strokeWidth=5;" parent="1" vertex="1">
          <mxGeometry x="-5044" y="1681" width="255" height="101" as="geometry" />
        </mxCell>
        <mxCell id="GA2vL-Xrcvd5V2LU-57q-3" value="Nhân viên" style="html=1;dashed=0;whiteSpace=wrap;fontSize=40;strokeWidth=5;" parent="1" vertex="1">
          <mxGeometry x="-2351" y="1508" width="255" height="101" as="geometry" />
        </mxCell>
        <mxCell id="GA2vL-Xrcvd5V2LU-57q-17" style="edgeStyle=none;shape=connector;rounded=0;orthogonalLoop=1;jettySize=auto;html=1;entryX=0.938;entryY=0.255;entryDx=0;entryDy=0;labelBackgroundColor=default;strokeColor=default;strokeWidth=5;align=center;verticalAlign=middle;fontFamily=Helvetica;fontSize=40;fontColor=default;endArrow=classic;entryPerimeter=0;exitX=0.194;exitY=1.011;exitDx=0;exitDy=0;exitPerimeter=0;" parent="1" source="GA2vL-Xrcvd5V2LU-57q-27" target="GA2vL-Xrcvd5V2LU-57q-5" edge="1">
          <mxGeometry relative="1" as="geometry">
            <mxPoint x="-3558" y="995" as="sourcePoint" />
          </mxGeometry>
        </mxCell>
        <mxCell id="GA2vL-Xrcvd5V2LU-57q-31" value="Sản phẩm hợp lệ" style="edgeLabel;html=1;align=center;verticalAlign=middle;resizable=0;points=[];fontSize=40;fontFamily=Helvetica;fontColor=default;rotation=-45;" parent="GA2vL-Xrcvd5V2LU-57q-17" vertex="1" connectable="0">
          <mxGeometry x="-0.0008" y="-7" relative="1" as="geometry">
            <mxPoint x="-7" y="6" as="offset" />
          </mxGeometry>
        </mxCell>
        <mxCell id="GA2vL-Xrcvd5V2LU-57q-14" style="edgeStyle=none;shape=connector;rounded=0;orthogonalLoop=1;jettySize=auto;html=1;entryX=0;entryY=0.5;entryDx=0;entryDy=0;labelBackgroundColor=default;strokeColor=default;strokeWidth=5;align=center;verticalAlign=middle;fontFamily=Helvetica;fontSize=40;fontColor=default;endArrow=classic;exitX=0.352;exitY=0.036;exitDx=0;exitDy=0;exitPerimeter=0;" parent="1" source="GA2vL-Xrcvd5V2LU-57q-5" target="GA2vL-Xrcvd5V2LU-57q-27" edge="1">
          <mxGeometry relative="1" as="geometry">
            <mxPoint x="-3566.2547391422777" y="1348.6257254572029" as="targetPoint" />
          </mxGeometry>
        </mxCell>
        <mxCell id="GA2vL-Xrcvd5V2LU-57q-15" value="Sản phẩm khách hàng cần mua" style="edgeLabel;html=1;align=center;verticalAlign=middle;resizable=0;points=[];fontSize=40;fontFamily=Helvetica;fontColor=default;rotation=-30;" parent="GA2vL-Xrcvd5V2LU-57q-14" vertex="1" connectable="0">
          <mxGeometry x="0.258" y="-3" relative="1" as="geometry">
            <mxPoint x="-114" y="54" as="offset" />
          </mxGeometry>
        </mxCell>
        <mxCell id="GA2vL-Xrcvd5V2LU-57q-20" style="edgeStyle=none;shape=connector;rounded=0;orthogonalLoop=1;jettySize=auto;html=1;labelBackgroundColor=default;strokeColor=default;strokeWidth=5;align=center;verticalAlign=middle;fontFamily=Helvetica;fontSize=40;fontColor=default;endArrow=classic;exitX=0.371;exitY=0.98;exitDx=0;exitDy=0;entryX=0.5;entryY=0;entryDx=0;entryDy=0;exitPerimeter=0;startArrow=classic;startFill=1;" parent="1" source="GA2vL-Xrcvd5V2LU-57q-5" target="GA2vL-Xrcvd5V2LU-57q-32" edge="1">
          <mxGeometry relative="1" as="geometry" />
        </mxCell>
        <mxCell id="GA2vL-Xrcvd5V2LU-57q-21" value="Đơn hàng" style="edgeLabel;html=1;align=center;verticalAlign=middle;resizable=0;points=[];fontSize=40;fontFamily=Helvetica;fontColor=default;rotation=0;" parent="GA2vL-Xrcvd5V2LU-57q-20" vertex="1" connectable="0">
          <mxGeometry x="-0.5273" y="-9" relative="1" as="geometry">
            <mxPoint x="28" y="190" as="offset" />
          </mxGeometry>
        </mxCell>
        <mxCell id="GA2vL-Xrcvd5V2LU-57q-5" value="2. Đặt hàng" style="shape=ellipse;html=1;dashed=0;whiteSpace=wrap;perimeter=ellipsePerimeter;strokeColor=default;strokeWidth=5;align=center;verticalAlign=middle;fontFamily=Helvetica;fontSize=40;fontColor=default;fillColor=default;" parent="1" vertex="1">
          <mxGeometry x="-4413" y="1307" width="483" height="183" as="geometry" />
        </mxCell>
        <mxCell id="GA2vL-Xrcvd5V2LU-57q-6" value="4.1 Thống kế doanh số" style="shape=ellipse;html=1;dashed=0;whiteSpace=wrap;perimeter=ellipsePerimeter;strokeColor=default;strokeWidth=3;align=center;verticalAlign=middle;fontFamily=Helvetica;fontSize=40;fontColor=default;fillColor=default;" parent="1" vertex="1">
          <mxGeometry x="-3898" y="1755" width="509" height="183" as="geometry" />
        </mxCell>
        <mxCell id="GA2vL-Xrcvd5V2LU-57q-7" value="3.1 Hủy đơn hàng" style="shape=ellipse;html=1;dashed=0;whiteSpace=wrap;perimeter=ellipsePerimeter;strokeColor=default;strokeWidth=5;align=center;verticalAlign=middle;fontFamily=Helvetica;fontSize=40;fontColor=default;fillColor=default;" parent="1" vertex="1">
          <mxGeometry x="-3654" y="2365" width="522" height="183" as="geometry" />
        </mxCell>
        <mxCell id="GA2vL-Xrcvd5V2LU-57q-8" value="" style="endArrow=classic;html=1;rounded=0;fontFamily=Helvetica;fontSize=40;fontColor=default;exitX=0.5;exitY=0;exitDx=0;exitDy=0;entryX=1;entryY=0.5;entryDx=0;entryDy=0;strokeWidth=5;" parent="1" source="GA2vL-Xrcvd5V2LU-57q-3" target="GA2vL-Xrcvd5V2LU-57q-94" edge="1">
          <mxGeometry width="50" height="50" relative="1" as="geometry">
            <mxPoint x="-3026" y="1572.5" as="sourcePoint" />
            <mxPoint x="-2594.5" y="1310" as="targetPoint" />
          </mxGeometry>
        </mxCell>
        <mxCell id="GA2vL-Xrcvd5V2LU-57q-9" value="Sản phẩm cần bán" style="edgeLabel;html=1;align=center;verticalAlign=middle;resizable=0;points=[];fontSize=40;fontFamily=Helvetica;fontColor=default;rotation=45;" parent="GA2vL-Xrcvd5V2LU-57q-8" vertex="1" connectable="0">
          <mxGeometry x="-0.0643" y="2" relative="1" as="geometry">
            <mxPoint x="-44" y="-37" as="offset" />
          </mxGeometry>
        </mxCell>
        <mxCell id="GA2vL-Xrcvd5V2LU-57q-10" value="" style="endArrow=classic;html=1;rounded=0;labelBackgroundColor=default;strokeColor=default;strokeWidth=5;align=center;verticalAlign=middle;fontFamily=Helvetica;fontSize=40;fontColor=default;shape=connector;entryX=0.25;entryY=0;entryDx=0;entryDy=0;exitX=0.5;exitY=1;exitDx=0;exitDy=0;" parent="1" source="GA2vL-Xrcvd5V2LU-57q-94" target="GA2vL-Xrcvd5V2LU-57q-3" edge="1">
          <mxGeometry width="50" height="50" relative="1" as="geometry">
            <mxPoint x="-2962" y="1681" as="sourcePoint" />
            <mxPoint x="-2912" y="1631" as="targetPoint" />
          </mxGeometry>
        </mxCell>
        <mxCell id="GA2vL-Xrcvd5V2LU-57q-11" value="Thông tin tạo thành công/ thất bại" style="edgeLabel;html=1;align=center;verticalAlign=middle;resizable=0;points=[];fontSize=40;fontFamily=Helvetica;fontColor=default;rotation=30;" parent="GA2vL-Xrcvd5V2LU-57q-10" vertex="1" connectable="0">
          <mxGeometry x="-0.1929" relative="1" as="geometry">
            <mxPoint x="4" y="4" as="offset" />
          </mxGeometry>
        </mxCell>
        <mxCell id="GA2vL-Xrcvd5V2LU-57q-12" value="" style="endArrow=classic;html=1;rounded=0;labelBackgroundColor=default;strokeColor=default;strokeWidth=5;align=center;verticalAlign=middle;fontFamily=Helvetica;fontSize=40;fontColor=default;shape=connector;exitX=0.5;exitY=0;exitDx=0;exitDy=0;entryX=0;entryY=0.5;entryDx=0;entryDy=0;" parent="1" source="GA2vL-Xrcvd5V2LU-57q-1" target="GA2vL-Xrcvd5V2LU-57q-5" edge="1">
          <mxGeometry width="50" height="50" relative="1" as="geometry">
            <mxPoint x="-3311" y="1658" as="sourcePoint" />
            <mxPoint x="-4462" y="1274" as="targetPoint" />
          </mxGeometry>
        </mxCell>
        <mxCell id="GA2vL-Xrcvd5V2LU-57q-13" value="Sản phẩm cần mua" style="edgeLabel;html=1;align=center;verticalAlign=middle;resizable=0;points=[];fontSize=40;fontFamily=Helvetica;fontColor=default;rotation=-15;" parent="GA2vL-Xrcvd5V2LU-57q-12" vertex="1" connectable="0">
          <mxGeometry x="-0.4253" y="8" relative="1" as="geometry">
            <mxPoint x="66" y="-58" as="offset" />
          </mxGeometry>
        </mxCell>
        <mxCell id="GA2vL-Xrcvd5V2LU-57q-24" value="" style="endArrow=classic;html=1;rounded=0;labelBackgroundColor=default;strokeColor=default;strokeWidth=5;align=center;verticalAlign=middle;fontFamily=Helvetica;fontSize=40;fontColor=default;shape=connector;exitX=0;exitY=1;exitDx=0;exitDy=0;entryX=1.024;entryY=0.125;entryDx=0;entryDy=0;entryPerimeter=0;" parent="1" source="GA2vL-Xrcvd5V2LU-57q-5" target="GA2vL-Xrcvd5V2LU-57q-1" edge="1">
          <mxGeometry width="50" height="50" relative="1" as="geometry">
            <mxPoint x="-3024" y="2077" as="sourcePoint" />
            <mxPoint x="-2974" y="2027" as="targetPoint" />
          </mxGeometry>
        </mxCell>
        <mxCell id="GA2vL-Xrcvd5V2LU-57q-25" value="Đơn hàng" style="edgeLabel;html=1;align=center;verticalAlign=middle;resizable=0;points=[];fontSize=40;fontFamily=Helvetica;fontColor=default;" parent="GA2vL-Xrcvd5V2LU-57q-24" vertex="1" connectable="0">
          <mxGeometry x="-0.1773" y="6" relative="1" as="geometry">
            <mxPoint x="-74" y="43" as="offset" />
          </mxGeometry>
        </mxCell>
        <mxCell id="GA2vL-Xrcvd5V2LU-57q-27" value="Sản phẩm" style="html=1;dashed=0;whiteSpace=wrap;shape=partialRectangle;right=0;left=0;strokeColor=default;strokeWidth=3;align=center;verticalAlign=middle;fontFamily=Helvetica;fontSize=40;fontColor=default;fillColor=default;" parent="1" vertex="1">
          <mxGeometry x="-3699" y="830" width="310" height="113" as="geometry" />
        </mxCell>
        <mxCell id="GA2vL-Xrcvd5V2LU-57q-29" value="" style="endArrow=classic;startArrow=none;html=1;rounded=0;labelBackgroundColor=default;strokeColor=default;strokeWidth=5;align=center;verticalAlign=middle;fontFamily=Helvetica;fontSize=40;fontColor=default;shape=connector;exitX=0;exitY=0.5;exitDx=0;exitDy=0;startFill=0;entryX=1;entryY=1;entryDx=0;entryDy=0;" parent="1" source="GA2vL-Xrcvd5V2LU-57q-94" target="GA2vL-Xrcvd5V2LU-57q-27" edge="1">
          <mxGeometry width="50" height="50" relative="1" as="geometry">
            <mxPoint x="-3368" y="1101" as="sourcePoint" />
            <mxPoint x="-3398" y="1114" as="targetPoint" />
          </mxGeometry>
        </mxCell>
        <mxCell id="GA2vL-Xrcvd5V2LU-57q-30" value="Sản phẩm&amp;nbsp;" style="edgeLabel;html=1;align=center;verticalAlign=middle;resizable=0;points=[];fontSize=40;fontFamily=Helvetica;fontColor=default;rotation=15;" parent="GA2vL-Xrcvd5V2LU-57q-29" vertex="1" connectable="0">
          <mxGeometry x="0.1111" y="4" relative="1" as="geometry">
            <mxPoint x="44" y="7" as="offset" />
          </mxGeometry>
        </mxCell>
        <mxCell id="GA2vL-Xrcvd5V2LU-57q-32" value="Đơn hàng" style="html=1;dashed=0;whiteSpace=wrap;shape=partialRectangle;right=0;left=0;strokeColor=default;strokeWidth=3;align=center;verticalAlign=middle;fontFamily=Helvetica;fontSize=40;fontColor=default;fillColor=default;" parent="1" vertex="1">
          <mxGeometry x="-4429" y="2450" width="310" height="113" as="geometry" />
        </mxCell>
        <mxCell id="GA2vL-Xrcvd5V2LU-57q-33" value="" style="endArrow=classic;startArrow=classic;html=1;rounded=0;labelBackgroundColor=default;strokeColor=default;strokeWidth=5;align=center;verticalAlign=middle;fontFamily=Helvetica;fontSize=40;fontColor=default;shape=connector;exitX=1;exitY=0.5;exitDx=0;exitDy=0;entryX=0;entryY=0.5;entryDx=0;entryDy=0;" parent="1" source="GA2vL-Xrcvd5V2LU-57q-32" target="GA2vL-Xrcvd5V2LU-57q-7" edge="1">
          <mxGeometry width="50" height="50" relative="1" as="geometry">
            <mxPoint x="-3803" y="2359" as="sourcePoint" />
            <mxPoint x="-3753" y="2309" as="targetPoint" />
          </mxGeometry>
        </mxCell>
        <mxCell id="GA2vL-Xrcvd5V2LU-57q-34" value="Đơn hàng cần hủy" style="edgeLabel;html=1;align=center;verticalAlign=middle;resizable=0;points=[];fontSize=40;fontFamily=Helvetica;fontColor=default;" parent="GA2vL-Xrcvd5V2LU-57q-33" vertex="1" connectable="0">
          <mxGeometry x="-0.3077" y="8" relative="1" as="geometry">
            <mxPoint x="70" y="-5" as="offset" />
          </mxGeometry>
        </mxCell>
        <mxCell id="GA2vL-Xrcvd5V2LU-57q-39" value="" style="endArrow=classic;html=1;rounded=0;labelBackgroundColor=default;strokeColor=default;strokeWidth=5;align=center;verticalAlign=middle;fontFamily=Helvetica;fontSize=40;fontColor=default;shape=connector;exitX=1;exitY=0.5;exitDx=0;exitDy=0;entryX=0;entryY=0.5;entryDx=0;entryDy=0;" parent="1" source="GA2vL-Xrcvd5V2LU-57q-6" target="GA2vL-Xrcvd5V2LU-57q-3" edge="1">
          <mxGeometry width="50" height="50" relative="1" as="geometry">
            <mxPoint x="-2563" y="2043" as="sourcePoint" />
            <mxPoint x="-2354" y="1574" as="targetPoint" />
          </mxGeometry>
        </mxCell>
        <mxCell id="GA2vL-Xrcvd5V2LU-57q-151" value="Doanh thu" style="edgeLabel;html=1;align=center;verticalAlign=middle;resizable=0;points=[];fontSize=40;fontFamily=Helvetica;fontColor=default;" parent="GA2vL-Xrcvd5V2LU-57q-39" vertex="1" connectable="0">
          <mxGeometry x="-0.5921" relative="1" as="geometry">
            <mxPoint x="165" y="-47" as="offset" />
          </mxGeometry>
        </mxCell>
        <mxCell id="GA2vL-Xrcvd5V2LU-57q-53" style="edgeStyle=none;shape=connector;rounded=0;orthogonalLoop=1;jettySize=auto;html=1;labelBackgroundColor=default;strokeColor=default;strokeWidth=5;align=center;verticalAlign=middle;fontFamily=Helvetica;fontSize=40;fontColor=default;startArrow=none;endArrow=classic;startFill=0;" parent="1" source="GA2vL-Xrcvd5V2LU-57q-41" target="GA2vL-Xrcvd5V2LU-57q-52" edge="1">
          <mxGeometry relative="1" as="geometry" />
        </mxCell>
        <mxCell id="GA2vL-Xrcvd5V2LU-57q-180" value="Tài khoản" style="edgeLabel;html=1;align=center;verticalAlign=middle;resizable=0;points=[];fontSize=40;fontFamily=Helvetica;fontColor=default;" parent="GA2vL-Xrcvd5V2LU-57q-53" vertex="1" connectable="0">
          <mxGeometry x="0.0164" y="1" relative="1" as="geometry">
            <mxPoint x="1" as="offset" />
          </mxGeometry>
        </mxCell>
        <mxCell id="GA2vL-Xrcvd5V2LU-57q-41" value="5.1 Tạo tài khoản người dùng" style="shape=ellipse;html=1;dashed=0;whiteSpace=wrap;perimeter=ellipsePerimeter;strokeColor=default;strokeWidth=3;align=center;verticalAlign=middle;fontFamily=Helvetica;fontSize=40;fontColor=default;fillColor=default;" parent="1" vertex="1">
          <mxGeometry x="-3171" y="4310" width="631" height="183" as="geometry" />
        </mxCell>
        <mxCell id="GA2vL-Xrcvd5V2LU-57q-45" value="Quản trị viên" style="html=1;dashed=0;whiteSpace=wrap;fontSize=40;strokeWidth=5;" parent="1" vertex="1">
          <mxGeometry x="-2930" y="5201" width="305" height="112" as="geometry" />
        </mxCell>
        <mxCell id="GA2vL-Xrcvd5V2LU-57q-66" style="edgeStyle=orthogonalEdgeStyle;shape=connector;rounded=0;orthogonalLoop=1;jettySize=auto;html=1;entryX=1;entryY=1;entryDx=0;entryDy=0;labelBackgroundColor=default;strokeColor=default;strokeWidth=5;align=center;verticalAlign=middle;fontFamily=Helvetica;fontSize=40;fontColor=default;startArrow=none;endArrow=classic;curved=1;exitX=1;exitY=0.5;exitDx=0;exitDy=0;startFill=0;" parent="1" source="GA2vL-Xrcvd5V2LU-57q-46" target="GA2vL-Xrcvd5V2LU-57q-3" edge="1">
          <mxGeometry relative="1" as="geometry">
            <Array as="points">
              <mxPoint x="-3761" y="3352" />
              <mxPoint x="-1980" y="3352" />
              <mxPoint x="-1980" y="1609" />
            </Array>
          </mxGeometry>
        </mxCell>
        <mxCell id="GA2vL-Xrcvd5V2LU-57q-68" value="Thông báo thành công/ thất bại" style="edgeLabel;html=1;align=center;verticalAlign=middle;resizable=0;points=[];fontSize=40;fontFamily=Helvetica;fontColor=default;rotation=90;" parent="GA2vL-Xrcvd5V2LU-57q-66" vertex="1" connectable="0">
          <mxGeometry x="0.3369" y="15" relative="1" as="geometry">
            <mxPoint x="15" y="-207" as="offset" />
          </mxGeometry>
        </mxCell>
        <mxCell id="GA2vL-Xrcvd5V2LU-57q-46" value="6. Đăng ký tài khoản" style="shape=ellipse;html=1;dashed=0;whiteSpace=wrap;perimeter=ellipsePerimeter;strokeColor=default;strokeWidth=3;align=center;verticalAlign=middle;fontFamily=Helvetica;fontSize=40;fontColor=default;fillColor=default;" parent="1" vertex="1">
          <mxGeometry x="-4270" y="3392" width="509" height="183" as="geometry" />
        </mxCell>
        <mxCell id="GA2vL-Xrcvd5V2LU-57q-51" value="" style="endArrow=classic;html=1;rounded=0;labelBackgroundColor=default;strokeColor=default;strokeWidth=5;align=center;verticalAlign=middle;fontFamily=Helvetica;fontSize=40;fontColor=default;shape=connector;exitX=0.5;exitY=1;exitDx=0;exitDy=0;entryX=0.6;entryY=0.004;entryDx=0;entryDy=0;startArrow=classic;startFill=1;entryPerimeter=0;" parent="1" source="GA2vL-Xrcvd5V2LU-57q-46" target="GA2vL-Xrcvd5V2LU-57q-52" edge="1">
          <mxGeometry width="50" height="50" relative="1" as="geometry">
            <mxPoint x="-3797" y="3350" as="sourcePoint" />
            <mxPoint x="-3747" y="3300" as="targetPoint" />
          </mxGeometry>
        </mxCell>
        <mxCell id="GA2vL-Xrcvd5V2LU-57q-57" value="Thông tin người dùng" style="edgeLabel;html=1;align=center;verticalAlign=middle;resizable=0;points=[];fontSize=40;fontFamily=Helvetica;fontColor=default;" parent="GA2vL-Xrcvd5V2LU-57q-51" vertex="1" connectable="0">
          <mxGeometry x="-0.5716" y="13" relative="1" as="geometry">
            <mxPoint x="-241" y="372" as="offset" />
          </mxGeometry>
        </mxCell>
        <mxCell id="GA2vL-Xrcvd5V2LU-57q-52" value="Tài khoản người dùng" style="html=1;dashed=0;whiteSpace=wrap;shape=partialRectangle;right=0;left=0;strokeColor=default;strokeWidth=3;align=center;verticalAlign=middle;fontFamily=Helvetica;fontSize=40;fontColor=default;fillColor=default;" parent="1" vertex="1">
          <mxGeometry x="-4568" y="4250" width="478" height="113" as="geometry" />
        </mxCell>
        <mxCell id="GA2vL-Xrcvd5V2LU-57q-73" style="edgeStyle=none;shape=connector;rounded=0;orthogonalLoop=1;jettySize=auto;html=1;entryX=0.881;entryY=0.022;entryDx=0;entryDy=0;labelBackgroundColor=default;strokeColor=default;strokeWidth=5;align=center;verticalAlign=middle;fontFamily=Helvetica;fontSize=40;fontColor=default;startArrow=classic;endArrow=classic;exitX=0.582;exitY=1.03;exitDx=0;exitDy=0;exitPerimeter=0;entryPerimeter=0;" parent="1" source="GA2vL-Xrcvd5V2LU-57q-58" target="GA2vL-Xrcvd5V2LU-57q-52" edge="1">
          <mxGeometry relative="1" as="geometry" />
        </mxCell>
        <mxCell id="GA2vL-Xrcvd5V2LU-57q-74" value="Tên đăng nhập, mật khẩu" style="edgeLabel;html=1;align=center;verticalAlign=middle;resizable=0;points=[];fontSize=40;fontFamily=Helvetica;fontColor=default;rotation=-25;" parent="GA2vL-Xrcvd5V2LU-57q-73" vertex="1" connectable="0">
          <mxGeometry x="-0.1361" y="-8" relative="1" as="geometry">
            <mxPoint x="-311" y="174" as="offset" />
          </mxGeometry>
        </mxCell>
        <mxCell id="GA2vL-Xrcvd5V2LU-57q-58" value="7. Đăng nhập" style="shape=ellipse;html=1;dashed=0;whiteSpace=wrap;perimeter=ellipsePerimeter;strokeColor=default;strokeWidth=3;align=center;verticalAlign=middle;fontFamily=Helvetica;fontSize=40;fontColor=default;fillColor=default;" parent="1" vertex="1">
          <mxGeometry x="-3054" y="3505" width="509" height="183" as="geometry" />
        </mxCell>
        <mxCell id="GA2vL-Xrcvd5V2LU-57q-61" value="" style="endArrow=classic;html=1;rounded=0;labelBackgroundColor=default;strokeColor=default;strokeWidth=5;align=center;verticalAlign=middle;fontFamily=Helvetica;fontSize=40;fontColor=default;shape=connector;exitX=0.75;exitY=1;exitDx=0;exitDy=0;entryX=0.5;entryY=0;entryDx=0;entryDy=0;edgeStyle=orthogonalEdgeStyle;curved=1;" parent="1" source="GA2vL-Xrcvd5V2LU-57q-3" target="GA2vL-Xrcvd5V2LU-57q-46" edge="1">
          <mxGeometry width="50" height="50" relative="1" as="geometry">
            <mxPoint x="-2389" y="2549" as="sourcePoint" />
            <mxPoint x="-2850" y="3121" as="targetPoint" />
            <Array as="points">
              <mxPoint x="-2160" y="3251" />
              <mxPoint x="-4015" y="3251" />
            </Array>
          </mxGeometry>
        </mxCell>
        <mxCell id="GA2vL-Xrcvd5V2LU-57q-67" value="Thông tin người dùng" style="edgeLabel;html=1;align=center;verticalAlign=middle;resizable=0;points=[];fontSize=40;fontFamily=Helvetica;fontColor=default;rotation=-54;" parent="GA2vL-Xrcvd5V2LU-57q-61" vertex="1" connectable="0">
          <mxGeometry x="-0.3767" y="-138" relative="1" as="geometry">
            <mxPoint x="-44" y="-60" as="offset" />
          </mxGeometry>
        </mxCell>
        <mxCell id="GA2vL-Xrcvd5V2LU-57q-64" value="" style="endArrow=classic;html=1;rounded=0;labelBackgroundColor=default;strokeColor=default;strokeWidth=5;align=center;verticalAlign=middle;fontFamily=Helvetica;fontSize=40;fontColor=default;shape=connector;exitX=0;exitY=0.5;exitDx=0;exitDy=0;edgeStyle=orthogonalEdgeStyle;curved=1;entryX=0;entryY=0.75;entryDx=0;entryDy=0;" parent="1" source="GA2vL-Xrcvd5V2LU-57q-46" target="GA2vL-Xrcvd5V2LU-57q-1" edge="1">
          <mxGeometry width="50" height="50" relative="1" as="geometry">
            <mxPoint x="-4735" y="3255" as="sourcePoint" />
            <mxPoint x="-5152" y="1788" as="targetPoint" />
            <Array as="points">
              <mxPoint x="-5166" y="3484" />
              <mxPoint x="-5166" y="1757" />
            </Array>
          </mxGeometry>
        </mxCell>
        <mxCell id="GA2vL-Xrcvd5V2LU-57q-65" value="Thông báo thành công/ thất bại" style="edgeLabel;html=1;align=center;verticalAlign=middle;resizable=0;points=[];fontSize=40;fontFamily=Helvetica;fontColor=default;rotation=75;" parent="GA2vL-Xrcvd5V2LU-57q-64" vertex="1" connectable="0">
          <mxGeometry x="0.2908" y="-136" relative="1" as="geometry">
            <mxPoint x="-66" y="-1" as="offset" />
          </mxGeometry>
        </mxCell>
        <mxCell id="GA2vL-Xrcvd5V2LU-57q-70" value="" style="endArrow=classic;html=1;rounded=0;labelBackgroundColor=default;strokeColor=default;strokeWidth=5;align=center;verticalAlign=middle;fontFamily=Helvetica;fontSize=40;fontColor=default;shape=connector;exitX=1;exitY=0.5;exitDx=0;exitDy=0;entryX=1;entryY=0;entryDx=0;entryDy=0;edgeStyle=orthogonalEdgeStyle;curved=1;" parent="1" source="GA2vL-Xrcvd5V2LU-57q-3" target="GA2vL-Xrcvd5V2LU-57q-58" edge="1">
          <mxGeometry width="50" height="50" relative="1" as="geometry">
            <mxPoint x="-1746" y="1676" as="sourcePoint" />
            <mxPoint x="-1696" y="1626" as="targetPoint" />
            <Array as="points">
              <mxPoint x="-1530" y="1559" />
              <mxPoint x="-1530" y="3540" />
              <mxPoint x="-1725" y="3540" />
              <mxPoint x="-1725" y="3532" />
            </Array>
          </mxGeometry>
        </mxCell>
        <mxCell id="GA2vL-Xrcvd5V2LU-57q-72" value="Thông tin đăng nhập" style="edgeLabel;html=1;align=center;verticalAlign=middle;resizable=0;points=[];fontSize=40;fontFamily=Helvetica;fontColor=default;" parent="GA2vL-Xrcvd5V2LU-57q-70" vertex="1" connectable="0">
          <mxGeometry x="0.7131" y="-10" relative="1" as="geometry">
            <mxPoint x="516" y="-323" as="offset" />
          </mxGeometry>
        </mxCell>
        <mxCell id="GA2vL-Xrcvd5V2LU-57q-76" value="" style="endArrow=classic;html=1;rounded=0;labelBackgroundColor=default;strokeColor=default;strokeWidth=5;align=center;verticalAlign=middle;fontFamily=Helvetica;fontSize=40;fontColor=default;shape=connector;exitX=0.992;exitY=0.643;exitDx=0;exitDy=0;exitPerimeter=0;entryX=1;entryY=0.089;entryDx=0;entryDy=0;edgeStyle=orthogonalEdgeStyle;curved=1;entryPerimeter=0;" parent="1" source="GA2vL-Xrcvd5V2LU-57q-58" target="GA2vL-Xrcvd5V2LU-57q-3" edge="1">
          <mxGeometry width="50" height="50" relative="1" as="geometry">
            <mxPoint x="-1455" y="3596" as="sourcePoint" />
            <mxPoint x="-1405" y="3546" as="targetPoint" />
            <Array as="points">
              <mxPoint x="-2157" y="3623" />
              <mxPoint x="-2157" y="3799" />
              <mxPoint x="-1170" y="3799" />
              <mxPoint x="-1170" y="1498" />
              <mxPoint x="-1894" y="1498" />
              <mxPoint x="-1894" y="1517" />
            </Array>
          </mxGeometry>
        </mxCell>
        <mxCell id="GA2vL-Xrcvd5V2LU-57q-77" value="Thông tin đã xác thực" style="edgeLabel;html=1;align=center;verticalAlign=middle;resizable=0;points=[];fontSize=40;fontFamily=Helvetica;fontColor=default;" parent="GA2vL-Xrcvd5V2LU-57q-76" vertex="1" connectable="0">
          <mxGeometry x="0.1751" y="2" relative="1" as="geometry">
            <mxPoint y="1" as="offset" />
          </mxGeometry>
        </mxCell>
        <mxCell id="GA2vL-Xrcvd5V2LU-57q-78" value="" style="endArrow=classic;html=1;rounded=0;labelBackgroundColor=default;strokeColor=default;strokeWidth=5;align=center;verticalAlign=middle;fontFamily=Helvetica;fontSize=40;fontColor=default;shape=connector;exitX=0;exitY=0.5;exitDx=0;exitDy=0;entryX=0;entryY=0.25;entryDx=0;entryDy=0;edgeStyle=orthogonalEdgeStyle;curved=1;" parent="1" source="GA2vL-Xrcvd5V2LU-57q-58" target="GA2vL-Xrcvd5V2LU-57q-1" edge="1">
          <mxGeometry width="50" height="50" relative="1" as="geometry">
            <mxPoint x="-3243" y="3571" as="sourcePoint" />
            <mxPoint x="-3193" y="3521" as="targetPoint" />
            <Array as="points">
              <mxPoint x="-3174" y="3596" />
              <mxPoint x="-3174" y="3804" />
              <mxPoint x="-5286" y="3804" />
              <mxPoint x="-5286" y="1782" />
              <mxPoint x="-5307" y="1782" />
              <mxPoint x="-5307" y="1706" />
            </Array>
          </mxGeometry>
        </mxCell>
        <mxCell id="GA2vL-Xrcvd5V2LU-57q-79" value="Thông tin đã xác thực" style="edgeLabel;html=1;align=center;verticalAlign=middle;resizable=0;points=[];fontSize=40;fontFamily=Helvetica;fontColor=default;rotation=75;" parent="GA2vL-Xrcvd5V2LU-57q-78" vertex="1" connectable="0">
          <mxGeometry x="0.408" y="-1" relative="1" as="geometry">
            <mxPoint y="-1" as="offset" />
          </mxGeometry>
        </mxCell>
        <mxCell id="GA2vL-Xrcvd5V2LU-57q-80" value="" style="endArrow=none;html=1;rounded=0;labelBackgroundColor=default;strokeColor=default;strokeWidth=5;align=center;verticalAlign=middle;fontFamily=Helvetica;fontSize=40;fontColor=default;shape=connector;exitX=0.197;exitY=0.937;exitDx=0;exitDy=0;exitPerimeter=0;entryX=0;entryY=0;entryDx=0;entryDy=0;edgeStyle=orthogonalEdgeStyle;curved=1;startArrow=classic;startFill=1;endFill=0;" parent="1" source="GA2vL-Xrcvd5V2LU-57q-58" target="GA2vL-Xrcvd5V2LU-57q-1" edge="1">
          <mxGeometry width="50" height="50" relative="1" as="geometry">
            <mxPoint x="-5411" y="3926" as="sourcePoint" />
            <mxPoint x="-5325" y="3761" as="targetPoint" />
            <Array as="points">
              <mxPoint x="-2954" y="3924" />
              <mxPoint x="-5667" y="3924" />
              <mxPoint x="-5667" y="1671" />
              <mxPoint x="-5044" y="1671" />
            </Array>
          </mxGeometry>
        </mxCell>
        <mxCell id="GA2vL-Xrcvd5V2LU-57q-81" value="Thông tin đăng nhập" style="edgeLabel;html=1;align=center;verticalAlign=middle;resizable=0;points=[];fontSize=40;fontFamily=Helvetica;fontColor=default;rotation=75;" parent="GA2vL-Xrcvd5V2LU-57q-80" vertex="1" connectable="0">
          <mxGeometry x="0.3085" y="-24" relative="1" as="geometry">
            <mxPoint y="-2" as="offset" />
          </mxGeometry>
        </mxCell>
        <mxCell id="GA2vL-Xrcvd5V2LU-57q-83" value="" style="endArrow=classic;html=1;rounded=0;labelBackgroundColor=default;strokeColor=default;strokeWidth=5;align=center;verticalAlign=middle;fontFamily=Helvetica;fontSize=40;fontColor=default;shape=connector;entryX=0.5;entryY=1;entryDx=0;entryDy=0;exitX=0.75;exitY=0;exitDx=0;exitDy=0;" parent="1" source="GA2vL-Xrcvd5V2LU-57q-45" target="GA2vL-Xrcvd5V2LU-57q-41" edge="1">
          <mxGeometry width="50" height="50" relative="1" as="geometry">
            <mxPoint x="-2714" y="5142" as="sourcePoint" />
            <mxPoint x="-3057" y="4691" as="targetPoint" />
          </mxGeometry>
        </mxCell>
        <mxCell id="GA2vL-Xrcvd5V2LU-57q-84" value="Tài khoản" style="edgeLabel;html=1;align=center;verticalAlign=middle;resizable=0;points=[];fontSize=40;fontFamily=Helvetica;fontColor=default;rotation=60;" parent="GA2vL-Xrcvd5V2LU-57q-83" vertex="1" connectable="0">
          <mxGeometry x="0.1749" y="9" relative="1" as="geometry">
            <mxPoint x="21" y="44" as="offset" />
          </mxGeometry>
        </mxCell>
        <mxCell id="GA2vL-Xrcvd5V2LU-57q-85" value="" style="endArrow=none;html=1;rounded=0;labelBackgroundColor=default;strokeColor=default;strokeWidth=5;align=center;verticalAlign=middle;fontFamily=Helvetica;fontSize=40;fontColor=default;shape=connector;exitX=1;exitY=0;exitDx=0;exitDy=0;entryX=0.812;entryY=0.918;entryDx=0;entryDy=0;entryPerimeter=0;startArrow=classic;startFill=1;endFill=0;" parent="1" source="GA2vL-Xrcvd5V2LU-57q-45" target="GA2vL-Xrcvd5V2LU-57q-41" edge="1">
          <mxGeometry width="50" height="50" relative="1" as="geometry">
            <mxPoint x="-2363" y="4842" as="sourcePoint" />
            <mxPoint x="-2356" y="4438" as="targetPoint" />
          </mxGeometry>
        </mxCell>
        <mxCell id="GA2vL-Xrcvd5V2LU-57q-87" value="Tài khoản" style="edgeLabel;html=1;align=center;verticalAlign=middle;resizable=0;points=[];fontSize=40;fontFamily=Helvetica;fontColor=default;rotation=75;" parent="GA2vL-Xrcvd5V2LU-57q-85" vertex="1" connectable="0">
          <mxGeometry x="0.1431" y="6" relative="1" as="geometry">
            <mxPoint x="12" y="-58" as="offset" />
          </mxGeometry>
        </mxCell>
        <mxCell id="GA2vL-Xrcvd5V2LU-57q-88" style="edgeStyle=none;shape=connector;rounded=0;orthogonalLoop=1;jettySize=auto;html=1;exitX=0.5;exitY=1;exitDx=0;exitDy=0;labelBackgroundColor=default;strokeColor=default;strokeWidth=5;align=center;verticalAlign=middle;fontFamily=Helvetica;fontSize=40;fontColor=default;startArrow=classic;endArrow=classic;" parent="1" source="GA2vL-Xrcvd5V2LU-57q-45" target="GA2vL-Xrcvd5V2LU-57q-45" edge="1">
          <mxGeometry relative="1" as="geometry" />
        </mxCell>
        <mxCell id="GA2vL-Xrcvd5V2LU-57q-90" value="" style="endArrow=classic;html=1;rounded=0;labelBackgroundColor=default;strokeColor=default;strokeWidth=5;align=center;verticalAlign=middle;fontFamily=Helvetica;fontSize=40;fontColor=default;shape=connector;exitX=1;exitY=0.25;exitDx=0;exitDy=0;entryX=0.688;entryY=1.007;entryDx=0;entryDy=0;entryPerimeter=0;edgeStyle=orthogonalEdgeStyle;curved=1;" parent="1" source="GA2vL-Xrcvd5V2LU-57q-45" target="GA2vL-Xrcvd5V2LU-57q-58" edge="1">
          <mxGeometry width="50" height="50" relative="1" as="geometry">
            <mxPoint x="-1751" y="5134" as="sourcePoint" />
            <mxPoint x="-1701" y="5084" as="targetPoint" />
            <Array as="points">
              <mxPoint x="-2317" y="5229" />
              <mxPoint x="-2317" y="4445" />
              <mxPoint x="-2461" y="4445" />
              <mxPoint x="-2461" y="3689" />
            </Array>
          </mxGeometry>
        </mxCell>
        <mxCell id="GA2vL-Xrcvd5V2LU-57q-91" value="Thông tin đăng nhập" style="edgeLabel;html=1;align=center;verticalAlign=middle;resizable=0;points=[];fontSize=40;fontFamily=Helvetica;fontColor=default;" parent="GA2vL-Xrcvd5V2LU-57q-90" vertex="1" connectable="0">
          <mxGeometry x="0.294" y="3" relative="1" as="geometry">
            <mxPoint y="1" as="offset" />
          </mxGeometry>
        </mxCell>
        <mxCell id="GA2vL-Xrcvd5V2LU-57q-92" value="" style="endArrow=none;html=1;rounded=0;labelBackgroundColor=default;strokeColor=default;strokeWidth=5;align=center;verticalAlign=middle;fontFamily=Helvetica;fontSize=40;fontColor=default;shape=connector;entryX=1;entryY=1;entryDx=0;entryDy=0;edgeStyle=orthogonalEdgeStyle;curved=1;startArrow=classic;startFill=1;endFill=0;exitX=1;exitY=1;exitDx=0;exitDy=0;" parent="1" source="GA2vL-Xrcvd5V2LU-57q-45" target="GA2vL-Xrcvd5V2LU-57q-58" edge="1">
          <mxGeometry width="50" height="50" relative="1" as="geometry">
            <mxPoint x="-2541" y="5399" as="sourcePoint" />
            <mxPoint x="-2694" y="3699" as="targetPoint" />
            <Array as="points">
              <mxPoint x="-1981" y="5313" />
              <mxPoint x="-1981" y="4455" />
              <mxPoint x="-2133" y="4455" />
              <mxPoint x="-2133" y="3699" />
              <mxPoint x="-2618" y="3699" />
            </Array>
          </mxGeometry>
        </mxCell>
        <mxCell id="GA2vL-Xrcvd5V2LU-57q-93" value="Thông tin đã xác thực" style="edgeLabel;html=1;align=center;verticalAlign=middle;resizable=0;points=[];fontSize=40;fontFamily=Helvetica;fontColor=default;" parent="GA2vL-Xrcvd5V2LU-57q-92" vertex="1" connectable="0">
          <mxGeometry x="0.294" y="3" relative="1" as="geometry">
            <mxPoint x="109" y="361" as="offset" />
          </mxGeometry>
        </mxCell>
        <mxCell id="GA2vL-Xrcvd5V2LU-57q-94" value="1.1 Tạo sản phẩm" style="shape=ellipse;html=1;dashed=0;whiteSpace=wrap;perimeter=ellipsePerimeter;strokeColor=default;strokeWidth=5;align=center;verticalAlign=middle;fontFamily=Helvetica;fontSize=40;fontColor=default;fillColor=default;" parent="1" vertex="1">
          <mxGeometry x="-3035" y="953" width="448" height="201" as="geometry" />
        </mxCell>
        <mxCell id="GA2vL-Xrcvd5V2LU-57q-96" value="1.2 Xóa sản phẩm" style="shape=ellipse;html=1;dashed=0;whiteSpace=wrap;perimeter=ellipsePerimeter;strokeColor=default;strokeWidth=5;align=center;verticalAlign=middle;fontFamily=Helvetica;fontSize=40;fontColor=default;fillColor=default;" parent="1" vertex="1">
          <mxGeometry x="-3013" y="613" width="448" height="201" as="geometry" />
        </mxCell>
        <mxCell id="GA2vL-Xrcvd5V2LU-57q-97" value="" style="endArrow=classic;html=1;rounded=0;fontFamily=Helvetica;fontSize=40;fontColor=default;strokeWidth=5;entryX=1;entryY=1;entryDx=0;entryDy=0;exitX=0.674;exitY=-0.04;exitDx=0;exitDy=0;exitPerimeter=0;" parent="1" source="GA2vL-Xrcvd5V2LU-57q-3" target="GA2vL-Xrcvd5V2LU-57q-96" edge="1">
          <mxGeometry width="50" height="50" relative="1" as="geometry">
            <mxPoint x="-2029" y="1405" as="sourcePoint" />
            <mxPoint x="-2506" y="738" as="targetPoint" />
          </mxGeometry>
        </mxCell>
        <mxCell id="GA2vL-Xrcvd5V2LU-57q-99" value="" style="endArrow=classic;startArrow=classic;html=1;rounded=0;labelBackgroundColor=default;strokeColor=default;strokeWidth=5;align=center;verticalAlign=middle;fontFamily=Helvetica;fontSize=40;fontColor=default;shape=connector;exitX=0;exitY=0.5;exitDx=0;exitDy=0;entryX=1;entryY=0.5;entryDx=0;entryDy=0;startFill=1;" parent="1" source="GA2vL-Xrcvd5V2LU-57q-96" target="GA2vL-Xrcvd5V2LU-57q-27" edge="1">
          <mxGeometry width="50" height="50" relative="1" as="geometry">
            <mxPoint x="-3025" y="1064" as="sourcePoint" />
            <mxPoint x="-3398" y="929" as="targetPoint" />
          </mxGeometry>
        </mxCell>
        <mxCell id="GA2vL-Xrcvd5V2LU-57q-100" value="Sản phẩm cần xóa" style="edgeLabel;html=1;align=center;verticalAlign=middle;resizable=0;points=[];fontSize=40;fontFamily=Helvetica;fontColor=default;" parent="GA2vL-Xrcvd5V2LU-57q-99" vertex="1" connectable="0">
          <mxGeometry x="0.1111" y="4" relative="1" as="geometry">
            <mxPoint x="11" y="-7" as="offset" />
          </mxGeometry>
        </mxCell>
        <mxCell id="GA2vL-Xrcvd5V2LU-57q-101" value="1.3 Cập nhật sản phẩm" style="shape=ellipse;html=1;dashed=0;whiteSpace=wrap;perimeter=ellipsePerimeter;strokeColor=default;strokeWidth=5;align=center;verticalAlign=middle;fontFamily=Helvetica;fontSize=40;fontColor=default;fillColor=default;" parent="1" vertex="1">
          <mxGeometry x="-3269" y="1263" width="448" height="201" as="geometry" />
        </mxCell>
        <mxCell id="GA2vL-Xrcvd5V2LU-57q-103" value="" style="endArrow=none;html=1;rounded=0;fontFamily=Helvetica;fontSize=40;fontColor=default;strokeWidth=5;entryX=1;entryY=0.383;entryDx=0;entryDy=0;entryPerimeter=0;startArrow=classic;startFill=1;endFill=0;exitX=0.856;exitY=-0.024;exitDx=0;exitDy=0;exitPerimeter=0;" parent="1" source="GA2vL-Xrcvd5V2LU-57q-3" target="GA2vL-Xrcvd5V2LU-57q-96" edge="1">
          <mxGeometry width="50" height="50" relative="1" as="geometry">
            <mxPoint x="-1992" y="1318" as="sourcePoint" />
            <mxPoint x="-2296" y="690" as="targetPoint" />
          </mxGeometry>
        </mxCell>
        <mxCell id="GA2vL-Xrcvd5V2LU-57q-104" value="Sản phẩm cần xóa" style="edgeLabel;html=1;align=center;verticalAlign=middle;resizable=0;points=[];fontSize=40;fontFamily=Helvetica;fontColor=default;rotation=0;" parent="GA2vL-Xrcvd5V2LU-57q-103" vertex="1" connectable="0">
          <mxGeometry x="-0.0643" y="2" relative="1" as="geometry">
            <mxPoint x="-317" y="-239" as="offset" />
          </mxGeometry>
        </mxCell>
        <mxCell id="GA2vL-Xrcvd5V2LU-57q-105" value="Thông tin xóa thành công/ thất bại" style="edgeLabel;html=1;align=center;verticalAlign=middle;resizable=0;points=[];fontSize=35;fontFamily=Helvetica;fontColor=default;rotation=60;" parent="GA2vL-Xrcvd5V2LU-57q-103" vertex="1" connectable="0">
          <mxGeometry x="0.1799" y="-3" relative="1" as="geometry">
            <mxPoint x="74" y="132" as="offset" />
          </mxGeometry>
        </mxCell>
        <mxCell id="GA2vL-Xrcvd5V2LU-57q-106" value="" style="endArrow=classic;html=1;rounded=0;labelBackgroundColor=default;strokeColor=default;strokeWidth=5;align=center;verticalAlign=middle;fontFamily=Helvetica;fontSize=40;fontColor=default;shape=connector;exitX=0.062;exitY=-0.018;exitDx=0;exitDy=0;entryX=1;entryY=0.5;entryDx=0;entryDy=0;exitPerimeter=0;" parent="1" source="GA2vL-Xrcvd5V2LU-57q-3" target="GA2vL-Xrcvd5V2LU-57q-101" edge="1">
          <mxGeometry width="50" height="50" relative="1" as="geometry">
            <mxPoint x="-2762" y="1638" as="sourcePoint" />
            <mxPoint x="-2712" y="1588" as="targetPoint" />
          </mxGeometry>
        </mxCell>
        <mxCell id="GA2vL-Xrcvd5V2LU-57q-107" value="Sản phẩm cập nhật" style="edgeLabel;html=1;align=center;verticalAlign=middle;resizable=0;points=[];fontSize=36;fontFamily=Helvetica;fontColor=default;rotation=30;" parent="GA2vL-Xrcvd5V2LU-57q-106" vertex="1" connectable="0">
          <mxGeometry x="0.352" y="-3" relative="1" as="geometry">
            <mxPoint x="45" y="18" as="offset" />
          </mxGeometry>
        </mxCell>
        <mxCell id="GA2vL-Xrcvd5V2LU-57q-109" value="" style="endArrow=classic;startArrow=classic;html=1;rounded=0;labelBackgroundColor=default;strokeColor=default;strokeWidth=5;align=center;verticalAlign=middle;fontFamily=Helvetica;fontSize=40;fontColor=default;shape=connector;exitX=0.5;exitY=0;exitDx=0;exitDy=0;entryX=0.865;entryY=1.012;entryDx=0;entryDy=0;entryPerimeter=0;" parent="1" source="GA2vL-Xrcvd5V2LU-57q-101" target="GA2vL-Xrcvd5V2LU-57q-27" edge="1">
          <mxGeometry width="50" height="50" relative="1" as="geometry">
            <mxPoint x="-3253" y="1315" as="sourcePoint" />
            <mxPoint x="-3203" y="1265" as="targetPoint" />
          </mxGeometry>
        </mxCell>
        <mxCell id="GA2vL-Xrcvd5V2LU-57q-110" value="Sản phẩm cập nhật" style="edgeLabel;html=1;align=center;verticalAlign=middle;resizable=0;points=[];fontSize=40;fontFamily=Helvetica;fontColor=default;rotation=45;" parent="GA2vL-Xrcvd5V2LU-57q-109" vertex="1" connectable="0">
          <mxGeometry x="0.1156" y="-1" relative="1" as="geometry">
            <mxPoint x="15" y="28" as="offset" />
          </mxGeometry>
        </mxCell>
        <mxCell id="GA2vL-Xrcvd5V2LU-57q-111" value="1.4 Xem sản phẩm" style="shape=ellipse;html=1;dashed=0;whiteSpace=wrap;perimeter=ellipsePerimeter;strokeColor=default;strokeWidth=5;align=center;verticalAlign=middle;fontFamily=Helvetica;fontSize=40;fontColor=default;fillColor=default;" parent="1" vertex="1">
          <mxGeometry x="-3621" y="1498" width="448" height="201" as="geometry" />
        </mxCell>
        <mxCell id="GA2vL-Xrcvd5V2LU-57q-112" value="" style="endArrow=classic;html=1;rounded=0;labelBackgroundColor=default;strokeColor=default;strokeWidth=5;align=center;verticalAlign=middle;fontFamily=Helvetica;fontSize=40;fontColor=default;shape=connector;entryX=0.905;entryY=0.208;entryDx=0;entryDy=0;entryPerimeter=0;exitX=-0.012;exitY=0.159;exitDx=0;exitDy=0;exitPerimeter=0;" parent="1" source="GA2vL-Xrcvd5V2LU-57q-3" target="GA2vL-Xrcvd5V2LU-57q-111" edge="1">
          <mxGeometry width="50" height="50" relative="1" as="geometry">
            <mxPoint x="-2418" y="1687" as="sourcePoint" />
            <mxPoint x="-2807" y="1645" as="targetPoint" />
          </mxGeometry>
        </mxCell>
        <mxCell id="GA2vL-Xrcvd5V2LU-57q-113" value="Thông tin yêu cầu" style="edgeLabel;html=1;align=center;verticalAlign=middle;resizable=0;points=[];fontSize=40;fontFamily=Helvetica;fontColor=default;" parent="GA2vL-Xrcvd5V2LU-57q-112" vertex="1" connectable="0">
          <mxGeometry x="0.1074" y="-2" relative="1" as="geometry">
            <mxPoint x="-156" y="-16" as="offset" />
          </mxGeometry>
        </mxCell>
        <mxCell id="GA2vL-Xrcvd5V2LU-57q-114" value="" style="endArrow=classic;html=1;rounded=0;labelBackgroundColor=default;strokeColor=default;strokeWidth=5;align=center;verticalAlign=middle;fontFamily=Helvetica;fontSize=40;fontColor=default;shape=connector;exitX=0.75;exitY=1;exitDx=0;exitDy=0;entryX=0;entryY=0;entryDx=0;entryDy=0;" parent="1" source="GA2vL-Xrcvd5V2LU-57q-27" target="GA2vL-Xrcvd5V2LU-57q-111" edge="1">
          <mxGeometry width="50" height="50" relative="1" as="geometry">
            <mxPoint x="-3457" y="1491" as="sourcePoint" />
            <mxPoint x="-3407" y="1441" as="targetPoint" />
          </mxGeometry>
        </mxCell>
        <mxCell id="GA2vL-Xrcvd5V2LU-57q-115" value="Sản phẩm" style="edgeLabel;html=1;align=center;verticalAlign=middle;resizable=0;points=[];fontSize=40;fontFamily=Helvetica;fontColor=default;rotation=-60;" parent="GA2vL-Xrcvd5V2LU-57q-114" vertex="1" connectable="0">
          <mxGeometry x="-0.0198" y="-3" relative="1" as="geometry">
            <mxPoint x="15" y="-93" as="offset" />
          </mxGeometry>
        </mxCell>
        <mxCell id="GA2vL-Xrcvd5V2LU-57q-116" value="" style="endArrow=classic;html=1;rounded=0;labelBackgroundColor=default;strokeColor=default;strokeWidth=5;align=center;verticalAlign=middle;fontFamily=Helvetica;fontSize=40;fontColor=default;shape=connector;exitX=1;exitY=0.5;exitDx=0;exitDy=0;entryX=-0.005;entryY=0.345;entryDx=0;entryDy=0;entryPerimeter=0;" parent="1" source="GA2vL-Xrcvd5V2LU-57q-111" target="GA2vL-Xrcvd5V2LU-57q-3" edge="1">
          <mxGeometry width="50" height="50" relative="1" as="geometry">
            <mxPoint x="-2780" y="1894" as="sourcePoint" />
            <mxPoint x="-2374" y="1692" as="targetPoint" />
          </mxGeometry>
        </mxCell>
        <mxCell id="GA2vL-Xrcvd5V2LU-57q-117" value="Sản phẩm" style="edgeLabel;html=1;align=center;verticalAlign=middle;resizable=0;points=[];fontSize=40;fontFamily=Helvetica;fontColor=default;" parent="GA2vL-Xrcvd5V2LU-57q-116" vertex="1" connectable="0">
          <mxGeometry x="-0.3748" y="12" relative="1" as="geometry">
            <mxPoint x="-76" y="9" as="offset" />
          </mxGeometry>
        </mxCell>
        <mxCell id="GA2vL-Xrcvd5V2LU-57q-118" value="" style="endArrow=classic;html=1;rounded=0;labelBackgroundColor=default;strokeColor=default;strokeWidth=5;align=center;verticalAlign=middle;fontFamily=Helvetica;fontSize=40;fontColor=default;shape=connector;exitX=1.024;exitY=0.627;exitDx=0;exitDy=0;entryX=0;entryY=0.5;entryDx=0;entryDy=0;exitPerimeter=0;" parent="1" source="GA2vL-Xrcvd5V2LU-57q-1" target="GA2vL-Xrcvd5V2LU-57q-111" edge="1">
          <mxGeometry width="50" height="50" relative="1" as="geometry">
            <mxPoint x="-4417" y="2067" as="sourcePoint" />
            <mxPoint x="-4367" y="2017" as="targetPoint" />
          </mxGeometry>
        </mxCell>
        <mxCell id="GA2vL-Xrcvd5V2LU-57q-119" value="Thông tin yêu cầu" style="edgeLabel;html=1;align=center;verticalAlign=middle;resizable=0;points=[];fontSize=40;fontFamily=Helvetica;fontColor=default;" parent="GA2vL-Xrcvd5V2LU-57q-118" vertex="1" connectable="0">
          <mxGeometry x="-0.2534" y="-2" relative="1" as="geometry">
            <mxPoint x="-47" y="-2" as="offset" />
          </mxGeometry>
        </mxCell>
        <mxCell id="GA2vL-Xrcvd5V2LU-57q-120" value="" style="endArrow=classic;html=1;rounded=0;labelBackgroundColor=default;strokeColor=default;strokeWidth=5;align=center;verticalAlign=middle;fontFamily=Helvetica;fontSize=40;fontColor=default;shape=connector;exitX=0;exitY=1;exitDx=0;exitDy=0;entryX=1;entryY=1;entryDx=0;entryDy=0;" parent="1" source="GA2vL-Xrcvd5V2LU-57q-111" target="GA2vL-Xrcvd5V2LU-57q-1" edge="1">
          <mxGeometry width="50" height="50" relative="1" as="geometry">
            <mxPoint x="-4328" y="1994" as="sourcePoint" />
            <mxPoint x="-4726" y="1795" as="targetPoint" />
          </mxGeometry>
        </mxCell>
        <mxCell id="GA2vL-Xrcvd5V2LU-57q-121" value="Sản phẩm" style="edgeLabel;html=1;align=center;verticalAlign=middle;resizable=0;points=[];fontSize=40;fontFamily=Helvetica;fontColor=default;" parent="GA2vL-Xrcvd5V2LU-57q-120" vertex="1" connectable="0">
          <mxGeometry x="0.4691" y="-3" relative="1" as="geometry">
            <mxPoint as="offset" />
          </mxGeometry>
        </mxCell>
        <mxCell id="GA2vL-Xrcvd5V2LU-57q-123" value="" style="endArrow=classic;html=1;rounded=0;labelBackgroundColor=default;strokeColor=default;strokeWidth=5;align=center;verticalAlign=middle;fontFamily=Helvetica;fontSize=40;fontColor=default;shape=connector;entryX=0.23;entryY=0.055;entryDx=0;entryDy=0;exitX=0.919;exitY=0.988;exitDx=0;exitDy=0;exitPerimeter=0;entryPerimeter=0;" parent="1" source="GA2vL-Xrcvd5V2LU-57q-1" target="GA2vL-Xrcvd5V2LU-57q-7" edge="1">
          <mxGeometry width="50" height="50" relative="1" as="geometry">
            <mxPoint x="-4667" y="1838" as="sourcePoint" />
            <mxPoint x="-3777" y="2065" as="targetPoint" />
          </mxGeometry>
        </mxCell>
        <mxCell id="GA2vL-Xrcvd5V2LU-57q-124" value="Đơn hàng cần hủy" style="edgeLabel;html=1;align=center;verticalAlign=middle;resizable=0;points=[];fontSize=40;fontFamily=Helvetica;fontColor=default;rotation=15;" parent="GA2vL-Xrcvd5V2LU-57q-123" vertex="1" connectable="0">
          <mxGeometry x="-0.47" y="5" relative="1" as="geometry">
            <mxPoint x="42" y="32" as="offset" />
          </mxGeometry>
        </mxCell>
        <mxCell id="GA2vL-Xrcvd5V2LU-57q-125" value="" style="endArrow=classic;html=1;rounded=0;labelBackgroundColor=default;strokeColor=default;strokeWidth=5;align=center;verticalAlign=middle;fontFamily=Helvetica;fontSize=40;fontColor=default;shape=connector;exitX=0.048;exitY=0.305;exitDx=0;exitDy=0;exitPerimeter=0;entryX=0.84;entryY=1.016;entryDx=0;entryDy=0;entryPerimeter=0;" parent="1" source="GA2vL-Xrcvd5V2LU-57q-7" target="GA2vL-Xrcvd5V2LU-57q-1" edge="1">
          <mxGeometry width="50" height="50" relative="1" as="geometry">
            <mxPoint x="-3531" y="2296" as="sourcePoint" />
            <mxPoint x="-4624" y="2006" as="targetPoint" />
            <Array as="points">
              <mxPoint x="-4437" y="2318" />
            </Array>
          </mxGeometry>
        </mxCell>
        <mxCell id="GA2vL-Xrcvd5V2LU-57q-126" value="Trạng thái đơn hàng cần hủy" style="edgeLabel;html=1;align=center;verticalAlign=middle;resizable=0;points=[];fontSize=40;fontFamily=Helvetica;fontColor=default;rotation=45;" parent="GA2vL-Xrcvd5V2LU-57q-125" vertex="1" connectable="0">
          <mxGeometry x="0.3495" y="4" relative="1" as="geometry">
            <mxPoint x="-51" y="-75" as="offset" />
          </mxGeometry>
        </mxCell>
        <mxCell id="GA2vL-Xrcvd5V2LU-57q-127" value="" style="endArrow=classic;html=1;rounded=0;labelBackgroundColor=default;strokeColor=default;strokeWidth=5;align=center;verticalAlign=middle;fontFamily=Helvetica;fontSize=40;fontColor=default;shape=connector;entryX=0.395;entryY=0.005;entryDx=0;entryDy=0;entryPerimeter=0;exitX=0.08;exitY=1.005;exitDx=0;exitDy=0;exitPerimeter=0;" parent="1" source="GA2vL-Xrcvd5V2LU-57q-3" target="GA2vL-Xrcvd5V2LU-57q-7" edge="1">
          <mxGeometry width="50" height="50" relative="1" as="geometry">
            <mxPoint x="-2348" y="1639" as="sourcePoint" />
            <mxPoint x="-3094" y="2224" as="targetPoint" />
          </mxGeometry>
        </mxCell>
        <mxCell id="GA2vL-Xrcvd5V2LU-57q-128" value="Đơn hàng cần hủy" style="edgeLabel;html=1;align=center;verticalAlign=middle;resizable=0;points=[];fontSize=40;fontFamily=Helvetica;fontColor=default;rotation=-30;" parent="GA2vL-Xrcvd5V2LU-57q-127" vertex="1" connectable="0">
          <mxGeometry x="0.2763" y="6" relative="1" as="geometry">
            <mxPoint x="34" y="-42" as="offset" />
          </mxGeometry>
        </mxCell>
        <mxCell id="GA2vL-Xrcvd5V2LU-57q-129" value="" style="endArrow=classic;html=1;rounded=0;labelBackgroundColor=default;strokeColor=default;strokeWidth=5;align=center;verticalAlign=middle;fontFamily=Helvetica;fontSize=40;fontColor=default;shape=connector;exitX=0.79;exitY=0.078;exitDx=0;exitDy=0;exitPerimeter=0;entryX=0.185;entryY=1.009;entryDx=0;entryDy=0;entryPerimeter=0;" parent="1" source="GA2vL-Xrcvd5V2LU-57q-7" target="GA2vL-Xrcvd5V2LU-57q-3" edge="1">
          <mxGeometry width="50" height="50" relative="1" as="geometry">
            <mxPoint x="-2890" y="2264" as="sourcePoint" />
            <mxPoint x="-2308" y="1619" as="targetPoint" />
          </mxGeometry>
        </mxCell>
        <mxCell id="GA2vL-Xrcvd5V2LU-57q-130" value="Thông báo hủy thành công / thất bại" style="edgeLabel;html=1;align=center;verticalAlign=middle;resizable=0;points=[];fontSize=40;fontFamily=Helvetica;fontColor=default;rotation=-35;" parent="GA2vL-Xrcvd5V2LU-57q-129" vertex="1" connectable="0">
          <mxGeometry x="-0.4317" y="5" relative="1" as="geometry">
            <mxPoint x="23" y="-28" as="offset" />
          </mxGeometry>
        </mxCell>
        <mxCell id="GA2vL-Xrcvd5V2LU-57q-131" value="3.2 Cật nhật đơn hàng" style="shape=ellipse;html=1;dashed=0;whiteSpace=wrap;perimeter=ellipsePerimeter;strokeColor=default;strokeWidth=5;align=center;verticalAlign=middle;fontFamily=Helvetica;fontSize=40;fontColor=default;fillColor=default;" parent="1" vertex="1">
          <mxGeometry x="-3610" y="2641" width="522" height="183" as="geometry" />
        </mxCell>
        <mxCell id="GA2vL-Xrcvd5V2LU-57q-132" value="" style="endArrow=classic;html=1;rounded=0;labelBackgroundColor=default;strokeColor=default;strokeWidth=5;align=center;verticalAlign=middle;fontFamily=Helvetica;fontSize=40;fontColor=default;shape=connector;" parent="1" source="GA2vL-Xrcvd5V2LU-57q-3" target="GA2vL-Xrcvd5V2LU-57q-131" edge="1">
          <mxGeometry width="50" height="50" relative="1" as="geometry">
            <mxPoint x="-2925" y="2434" as="sourcePoint" />
            <mxPoint x="-2875" y="2384" as="targetPoint" />
          </mxGeometry>
        </mxCell>
        <mxCell id="GA2vL-Xrcvd5V2LU-57q-133" value="Đơn hàng cập nhật" style="edgeLabel;html=1;align=center;verticalAlign=middle;resizable=0;points=[];fontSize=40;fontFamily=Helvetica;fontColor=default;rotation=-40;" parent="GA2vL-Xrcvd5V2LU-57q-132" vertex="1" connectable="0">
          <mxGeometry x="0.0817" y="-12" relative="1" as="geometry">
            <mxPoint x="-136" y="133" as="offset" />
          </mxGeometry>
        </mxCell>
        <mxCell id="GA2vL-Xrcvd5V2LU-57q-136" value="" style="endArrow=classic;startArrow=classic;html=1;rounded=0;labelBackgroundColor=default;strokeColor=default;strokeWidth=5;align=center;verticalAlign=middle;fontFamily=Helvetica;fontSize=40;fontColor=default;shape=connector;exitX=1;exitY=0.75;exitDx=0;exitDy=0;entryX=0;entryY=0.5;entryDx=0;entryDy=0;" parent="1" source="GA2vL-Xrcvd5V2LU-57q-32" target="GA2vL-Xrcvd5V2LU-57q-131" edge="1">
          <mxGeometry width="50" height="50" relative="1" as="geometry">
            <mxPoint x="-3755" y="2915" as="sourcePoint" />
            <mxPoint x="-3705" y="2865" as="targetPoint" />
          </mxGeometry>
        </mxCell>
        <mxCell id="GA2vL-Xrcvd5V2LU-57q-137" value="Đơn hàng cập nhật" style="edgeLabel;html=1;align=center;verticalAlign=middle;resizable=0;points=[];fontSize=40;fontFamily=Helvetica;fontColor=default;rotation=30;" parent="GA2vL-Xrcvd5V2LU-57q-136" vertex="1" connectable="0">
          <mxGeometry x="-0.4291" y="7" relative="1" as="geometry">
            <mxPoint x="110" y="45" as="offset" />
          </mxGeometry>
        </mxCell>
        <mxCell id="GA2vL-Xrcvd5V2LU-57q-138" value="" style="endArrow=classic;html=1;rounded=0;labelBackgroundColor=default;strokeColor=default;strokeWidth=5;align=center;verticalAlign=middle;fontFamily=Helvetica;fontSize=40;fontColor=default;shape=connector;exitX=0.966;exitY=0.287;exitDx=0;exitDy=0;exitPerimeter=0;entryX=0.398;entryY=1.019;entryDx=0;entryDy=0;entryPerimeter=0;" parent="1" source="GA2vL-Xrcvd5V2LU-57q-131" target="GA2vL-Xrcvd5V2LU-57q-3" edge="1">
          <mxGeometry width="50" height="50" relative="1" as="geometry">
            <mxPoint x="-2809" y="2476" as="sourcePoint" />
            <mxPoint x="-2759" y="2426" as="targetPoint" />
          </mxGeometry>
        </mxCell>
        <mxCell id="GA2vL-Xrcvd5V2LU-57q-139" value="Thông tin cập nhật thành công/ thất bại" style="edgeLabel;html=1;align=center;verticalAlign=middle;resizable=0;points=[];fontSize=40;fontFamily=Helvetica;fontColor=default;rotation=-45;" parent="GA2vL-Xrcvd5V2LU-57q-138" vertex="1" connectable="0">
          <mxGeometry x="-0.6691" y="1" relative="1" as="geometry">
            <mxPoint x="95" y="-139" as="offset" />
          </mxGeometry>
        </mxCell>
        <mxCell id="GA2vL-Xrcvd5V2LU-57q-140" value="3.3 Xem đơn hàng" style="shape=ellipse;html=1;dashed=0;whiteSpace=wrap;perimeter=ellipsePerimeter;strokeColor=default;strokeWidth=5;align=center;verticalAlign=middle;fontFamily=Helvetica;fontSize=40;fontColor=default;fillColor=default;" parent="1" vertex="1">
          <mxGeometry x="-3641" y="2973" width="522" height="183" as="geometry" />
        </mxCell>
        <mxCell id="GA2vL-Xrcvd5V2LU-57q-141" value="" style="endArrow=classic;html=1;rounded=0;labelBackgroundColor=default;strokeColor=default;strokeWidth=5;align=center;verticalAlign=middle;fontFamily=Helvetica;fontSize=40;fontColor=default;shape=connector;entryX=0;entryY=0.5;entryDx=0;entryDy=0;exitX=0.25;exitY=1;exitDx=0;exitDy=0;" parent="1" source="GA2vL-Xrcvd5V2LU-57q-1" target="GA2vL-Xrcvd5V2LU-57q-140" edge="1">
          <mxGeometry width="50" height="50" relative="1" as="geometry">
            <mxPoint x="-4103" y="3038" as="sourcePoint" />
            <mxPoint x="-4053" y="2988" as="targetPoint" />
            <Array as="points">
              <mxPoint x="-4503" y="2734" />
            </Array>
          </mxGeometry>
        </mxCell>
        <mxCell id="GA2vL-Xrcvd5V2LU-57q-142" value="Thông tin yêu cầu" style="edgeLabel;html=1;align=center;verticalAlign=middle;resizable=0;points=[];fontSize=40;fontFamily=Helvetica;fontColor=default;rotation=15;" parent="GA2vL-Xrcvd5V2LU-57q-141" vertex="1" connectable="0">
          <mxGeometry x="0.2174" y="11" relative="1" as="geometry">
            <mxPoint x="97" y="38" as="offset" />
          </mxGeometry>
        </mxCell>
        <mxCell id="GA2vL-Xrcvd5V2LU-57q-143" value="" style="endArrow=classic;html=1;rounded=0;labelBackgroundColor=default;strokeColor=default;strokeWidth=5;align=center;verticalAlign=middle;fontFamily=Helvetica;fontSize=40;fontColor=default;shape=connector;exitX=0.573;exitY=1;exitDx=0;exitDy=0;exitPerimeter=0;entryX=0;entryY=0;entryDx=0;entryDy=0;" parent="1" source="GA2vL-Xrcvd5V2LU-57q-32" target="GA2vL-Xrcvd5V2LU-57q-140" edge="1">
          <mxGeometry width="50" height="50" relative="1" as="geometry">
            <mxPoint x="-3991" y="2782" as="sourcePoint" />
            <mxPoint x="-3941" y="2732" as="targetPoint" />
          </mxGeometry>
        </mxCell>
        <mxCell id="GA2vL-Xrcvd5V2LU-57q-144" value="Đơn hàng" style="edgeLabel;html=1;align=center;verticalAlign=middle;resizable=0;points=[];fontSize=40;fontFamily=Helvetica;fontColor=default;" parent="GA2vL-Xrcvd5V2LU-57q-143" vertex="1" connectable="0">
          <mxGeometry x="-0.244" y="5" relative="1" as="geometry">
            <mxPoint x="68" y="39" as="offset" />
          </mxGeometry>
        </mxCell>
        <mxCell id="GA2vL-Xrcvd5V2LU-57q-145" value="" style="endArrow=classic;html=1;rounded=0;labelBackgroundColor=default;strokeColor=default;strokeWidth=5;align=center;verticalAlign=middle;fontFamily=Helvetica;fontSize=40;fontColor=default;shape=connector;entryX=0.5;entryY=1;entryDx=0;entryDy=0;exitX=0.063;exitY=0.26;exitDx=0;exitDy=0;exitPerimeter=0;" parent="1" source="GA2vL-Xrcvd5V2LU-57q-140" target="GA2vL-Xrcvd5V2LU-57q-1" edge="1">
          <mxGeometry width="50" height="50" relative="1" as="geometry">
            <mxPoint x="-3904" y="2928" as="sourcePoint" />
            <mxPoint x="-3854" y="2878" as="targetPoint" />
            <Array as="points">
              <mxPoint x="-4455" y="2618" />
            </Array>
          </mxGeometry>
        </mxCell>
        <mxCell id="GA2vL-Xrcvd5V2LU-57q-146" value="Đơn hàng" style="edgeLabel;html=1;align=center;verticalAlign=middle;resizable=0;points=[];fontSize=40;fontFamily=Helvetica;fontColor=default;rotation=60;" parent="GA2vL-Xrcvd5V2LU-57q-145" vertex="1" connectable="0">
          <mxGeometry x="0.4056" y="9" relative="1" as="geometry">
            <mxPoint x="6" y="-16" as="offset" />
          </mxGeometry>
        </mxCell>
        <mxCell id="GA2vL-Xrcvd5V2LU-57q-147" value="" style="endArrow=classic;html=1;rounded=0;labelBackgroundColor=default;strokeColor=default;strokeWidth=5;align=center;verticalAlign=middle;fontFamily=Helvetica;fontSize=40;fontColor=default;shape=connector;entryX=0.924;entryY=0.22;entryDx=0;entryDy=0;entryPerimeter=0;exitX=0.5;exitY=1;exitDx=0;exitDy=0;" parent="1" source="GA2vL-Xrcvd5V2LU-57q-3" target="GA2vL-Xrcvd5V2LU-57q-140" edge="1">
          <mxGeometry width="50" height="50" relative="1" as="geometry">
            <mxPoint x="-2208" y="1615" as="sourcePoint" />
            <mxPoint x="-2760" y="2553" as="targetPoint" />
          </mxGeometry>
        </mxCell>
        <mxCell id="GA2vL-Xrcvd5V2LU-57q-148" value="Thông tin yêu cầu" style="edgeLabel;html=1;align=center;verticalAlign=middle;resizable=0;points=[];fontSize=40;fontFamily=Helvetica;fontColor=default;rotation=-47;" parent="GA2vL-Xrcvd5V2LU-57q-147" vertex="1" connectable="0">
          <mxGeometry x="0.3274" y="-9" relative="1" as="geometry">
            <mxPoint y="-1" as="offset" />
          </mxGeometry>
        </mxCell>
        <mxCell id="GA2vL-Xrcvd5V2LU-57q-149" value="" style="endArrow=classic;html=1;rounded=0;labelBackgroundColor=default;strokeColor=default;strokeWidth=5;align=center;verticalAlign=middle;fontFamily=Helvetica;fontSize=40;fontColor=default;shape=connector;exitX=1;exitY=0.5;exitDx=0;exitDy=0;entryX=0.65;entryY=1.008;entryDx=0;entryDy=0;entryPerimeter=0;" parent="1" source="GA2vL-Xrcvd5V2LU-57q-140" target="GA2vL-Xrcvd5V2LU-57q-3" edge="1">
          <mxGeometry width="50" height="50" relative="1" as="geometry">
            <mxPoint x="-2725" y="2738" as="sourcePoint" />
            <mxPoint x="-2675" y="2688" as="targetPoint" />
          </mxGeometry>
        </mxCell>
        <mxCell id="GA2vL-Xrcvd5V2LU-57q-150" value="Đơn hàng" style="edgeLabel;html=1;align=center;verticalAlign=middle;resizable=0;points=[];fontSize=40;fontFamily=Helvetica;fontColor=default;rotation=-50;" parent="GA2vL-Xrcvd5V2LU-57q-149" vertex="1" connectable="0">
          <mxGeometry x="-0.743" y="-1" relative="1" as="geometry">
            <mxPoint x="10" y="-27" as="offset" />
          </mxGeometry>
        </mxCell>
        <mxCell id="GA2vL-Xrcvd5V2LU-57q-152" value="4.2 Thống kế thu" style="shape=ellipse;html=1;dashed=0;whiteSpace=wrap;perimeter=ellipsePerimeter;strokeColor=default;strokeWidth=3;align=center;verticalAlign=middle;fontFamily=Helvetica;fontSize=40;fontColor=default;fillColor=default;" parent="1" vertex="1">
          <mxGeometry x="-3909" y="2014" width="509" height="183" as="geometry" />
        </mxCell>
        <mxCell id="GA2vL-Xrcvd5V2LU-57q-153" value="" style="endArrow=classic;html=1;rounded=0;labelBackgroundColor=default;strokeColor=default;strokeWidth=5;align=center;verticalAlign=middle;fontFamily=Helvetica;fontSize=40;fontColor=default;shape=connector;exitX=0.978;exitY=0.335;exitDx=0;exitDy=0;exitPerimeter=0;entryX=0;entryY=0.75;entryDx=0;entryDy=0;" parent="1" source="GA2vL-Xrcvd5V2LU-57q-152" target="GA2vL-Xrcvd5V2LU-57q-3" edge="1">
          <mxGeometry width="50" height="50" relative="1" as="geometry">
            <mxPoint x="-3379" y="1857" as="sourcePoint" />
            <mxPoint x="-2410" y="1631" as="targetPoint" />
          </mxGeometry>
        </mxCell>
        <mxCell id="GA2vL-Xrcvd5V2LU-57q-154" value="Doanh số" style="edgeLabel;html=1;align=center;verticalAlign=middle;resizable=0;points=[];fontSize=40;fontFamily=Helvetica;fontColor=default;" parent="GA2vL-Xrcvd5V2LU-57q-153" vertex="1" connectable="0">
          <mxGeometry x="-0.5921" relative="1" as="geometry">
            <mxPoint x="145" y="-66" as="offset" />
          </mxGeometry>
        </mxCell>
        <mxCell id="GA2vL-Xrcvd5V2LU-57q-156" value="" style="endArrow=classic;html=1;rounded=0;labelBackgroundColor=default;strokeColor=default;strokeWidth=5;align=center;verticalAlign=middle;fontFamily=Helvetica;fontSize=40;fontColor=default;shape=connector;exitX=0.75;exitY=0;exitDx=0;exitDy=0;entryX=0.035;entryY=0.718;entryDx=0;entryDy=0;entryPerimeter=0;" parent="1" source="GA2vL-Xrcvd5V2LU-57q-32" target="GA2vL-Xrcvd5V2LU-57q-152" edge="1">
          <mxGeometry width="50" height="50" relative="1" as="geometry">
            <mxPoint x="-4100" y="2101" as="sourcePoint" />
            <mxPoint x="-4050" y="2051" as="targetPoint" />
          </mxGeometry>
        </mxCell>
        <mxCell id="GA2vL-Xrcvd5V2LU-57q-157" value="Đơn hàng" style="edgeLabel;html=1;align=center;verticalAlign=middle;resizable=0;points=[];fontSize=40;fontFamily=Helvetica;fontColor=default;rotation=-50;" parent="GA2vL-Xrcvd5V2LU-57q-156" vertex="1" connectable="0">
          <mxGeometry x="0.3049" y="2" relative="1" as="geometry">
            <mxPoint x="-24" y="25" as="offset" />
          </mxGeometry>
        </mxCell>
        <mxCell id="GA2vL-Xrcvd5V2LU-57q-158" value="" style="endArrow=classic;html=1;rounded=0;labelBackgroundColor=default;strokeColor=default;strokeWidth=5;align=center;verticalAlign=middle;fontFamily=Helvetica;fontSize=40;fontColor=default;shape=connector;exitX=0.5;exitY=1;exitDx=0;exitDy=0;entryX=0;entryY=0;entryDx=0;entryDy=0;" parent="1" source="GA2vL-Xrcvd5V2LU-57q-27" target="GA2vL-Xrcvd5V2LU-57q-6" edge="1">
          <mxGeometry width="50" height="50" relative="1" as="geometry">
            <mxPoint x="-3786" y="1417" as="sourcePoint" />
            <mxPoint x="-3736" y="1367" as="targetPoint" />
          </mxGeometry>
        </mxCell>
        <mxCell id="GA2vL-Xrcvd5V2LU-57q-159" value="Sản phẩm" style="edgeLabel;html=1;align=center;verticalAlign=middle;resizable=0;points=[];fontSize=40;fontFamily=Helvetica;fontColor=default;rotation=-55;" parent="GA2vL-Xrcvd5V2LU-57q-158" vertex="1" connectable="0">
          <mxGeometry x="0.0741" y="-4" relative="1" as="geometry">
            <mxPoint x="18" y="-65" as="offset" />
          </mxGeometry>
        </mxCell>
        <mxCell id="GA2vL-Xrcvd5V2LU-57q-160" value="5.2 Cập nhật thông tin tài khoản" style="shape=ellipse;html=1;dashed=0;whiteSpace=wrap;perimeter=ellipsePerimeter;strokeColor=default;strokeWidth=3;align=center;verticalAlign=middle;fontFamily=Helvetica;fontSize=40;fontColor=default;fillColor=default;" parent="1" vertex="1">
          <mxGeometry x="-3913" y="4618" width="509" height="183" as="geometry" />
        </mxCell>
        <mxCell id="GA2vL-Xrcvd5V2LU-57q-161" value="5.4 Xóa tài khoản" style="shape=ellipse;html=1;dashed=0;whiteSpace=wrap;perimeter=ellipsePerimeter;strokeColor=default;strokeWidth=3;align=center;verticalAlign=middle;fontFamily=Helvetica;fontSize=40;fontColor=default;fillColor=default;" parent="1" vertex="1">
          <mxGeometry x="-4338" y="5283" width="509" height="183" as="geometry" />
        </mxCell>
        <mxCell id="GA2vL-Xrcvd5V2LU-57q-162" value="5.5 Vô hiệu hóa tài khoản" style="shape=ellipse;html=1;dashed=0;whiteSpace=wrap;perimeter=ellipsePerimeter;strokeColor=default;strokeWidth=3;align=center;verticalAlign=middle;fontFamily=Helvetica;fontSize=40;fontColor=default;fillColor=default;" parent="1" vertex="1">
          <mxGeometry x="-4700" y="5656" width="509" height="183" as="geometry" />
        </mxCell>
        <mxCell id="GA2vL-Xrcvd5V2LU-57q-163" value="5.3 Xem thông tin tài khoản" style="shape=ellipse;html=1;dashed=0;whiteSpace=wrap;perimeter=ellipsePerimeter;strokeColor=default;strokeWidth=3;align=center;verticalAlign=middle;fontFamily=Helvetica;fontSize=40;fontColor=default;fillColor=default;" parent="1" vertex="1">
          <mxGeometry x="-4133" y="4968" width="616" height="183" as="geometry" />
        </mxCell>
        <mxCell id="GA2vL-Xrcvd5V2LU-57q-164" value="" style="endArrow=classic;html=1;rounded=0;labelBackgroundColor=default;strokeColor=default;strokeWidth=5;align=center;verticalAlign=middle;fontFamily=Helvetica;fontSize=40;fontColor=default;shape=connector;" parent="1" source="GA2vL-Xrcvd5V2LU-57q-45" target="GA2vL-Xrcvd5V2LU-57q-160" edge="1">
          <mxGeometry width="50" height="50" relative="1" as="geometry">
            <mxPoint x="-2844" y="5211" as="sourcePoint" />
            <mxPoint x="-2928" y="4486" as="targetPoint" />
          </mxGeometry>
        </mxCell>
        <mxCell id="GA2vL-Xrcvd5V2LU-57q-165" value="Thông báo cập nhật thành công" style="edgeLabel;html=1;align=center;verticalAlign=middle;resizable=0;points=[];fontSize=40;fontFamily=Helvetica;fontColor=default;rotation=30;" parent="GA2vL-Xrcvd5V2LU-57q-164" vertex="1" connectable="0">
          <mxGeometry x="0.1749" y="9" relative="1" as="geometry">
            <mxPoint x="53" y="18" as="offset" />
          </mxGeometry>
        </mxCell>
        <mxCell id="GA2vL-Xrcvd5V2LU-57q-166" value="" style="endArrow=classic;html=1;rounded=0;labelBackgroundColor=default;strokeColor=default;strokeWidth=5;align=center;verticalAlign=middle;fontFamily=Helvetica;fontSize=40;fontColor=default;shape=connector;exitX=1;exitY=0.5;exitDx=0;exitDy=0;entryX=0.5;entryY=0;entryDx=0;entryDy=0;" parent="1" source="GA2vL-Xrcvd5V2LU-57q-160" target="GA2vL-Xrcvd5V2LU-57q-45" edge="1">
          <mxGeometry width="50" height="50" relative="1" as="geometry">
            <mxPoint x="-2834" y="5221" as="sourcePoint" />
            <mxPoint x="-3238" y="4596" as="targetPoint" />
          </mxGeometry>
        </mxCell>
        <mxCell id="GA2vL-Xrcvd5V2LU-57q-169" value="Thông tin cập nhật tài khoản" style="edgeLabel;html=1;align=center;verticalAlign=middle;resizable=0;points=[];fontSize=40;fontFamily=Helvetica;fontColor=default;rotation=30;" parent="GA2vL-Xrcvd5V2LU-57q-166" vertex="1" connectable="0">
          <mxGeometry x="-0.2704" y="-7" relative="1" as="geometry">
            <mxPoint x="21" y="-8" as="offset" />
          </mxGeometry>
        </mxCell>
        <mxCell id="GA2vL-Xrcvd5V2LU-57q-170" value="" style="endArrow=classic;html=1;rounded=0;labelBackgroundColor=default;strokeColor=default;strokeWidth=5;align=center;verticalAlign=middle;fontFamily=Helvetica;fontSize=40;fontColor=default;shape=connector;exitX=1;exitY=0.5;exitDx=0;exitDy=0;entryX=0;entryY=0;entryDx=0;entryDy=0;" parent="1" source="GA2vL-Xrcvd5V2LU-57q-163" target="GA2vL-Xrcvd5V2LU-57q-45" edge="1">
          <mxGeometry width="50" height="50" relative="1" as="geometry">
            <mxPoint x="-3492" y="4667" as="sourcePoint" />
            <mxPoint x="-2767" y="5211" as="targetPoint" />
          </mxGeometry>
        </mxCell>
        <mxCell id="GA2vL-Xrcvd5V2LU-57q-171" value="Tài khoản" style="edgeLabel;html=1;align=center;verticalAlign=middle;resizable=0;points=[];fontSize=40;fontFamily=Helvetica;fontColor=default;rotation=15;" parent="GA2vL-Xrcvd5V2LU-57q-170" vertex="1" connectable="0">
          <mxGeometry x="-0.2704" y="-7" relative="1" as="geometry">
            <mxPoint x="44" as="offset" />
          </mxGeometry>
        </mxCell>
        <mxCell id="GA2vL-Xrcvd5V2LU-57q-172" value="" style="endArrow=classic;html=1;rounded=0;labelBackgroundColor=default;strokeColor=default;strokeWidth=5;align=center;verticalAlign=middle;fontFamily=Helvetica;fontSize=40;fontColor=default;shape=connector;entryX=0.81;entryY=0.948;entryDx=0;entryDy=0;entryPerimeter=0;exitX=-0.007;exitY=0.33;exitDx=0;exitDy=0;exitPerimeter=0;" parent="1" source="GA2vL-Xrcvd5V2LU-57q-45" target="GA2vL-Xrcvd5V2LU-57q-163" edge="1">
          <mxGeometry width="50" height="50" relative="1" as="geometry">
            <mxPoint x="-3000" y="5238" as="sourcePoint" />
            <mxPoint x="-2982" y="5391" as="targetPoint" />
          </mxGeometry>
        </mxCell>
        <mxCell id="GA2vL-Xrcvd5V2LU-57q-173" value="Thông tin yêu cầu" style="edgeLabel;html=1;align=center;verticalAlign=middle;resizable=0;points=[];fontSize=40;fontFamily=Helvetica;fontColor=default;rotation=15;" parent="GA2vL-Xrcvd5V2LU-57q-172" vertex="1" connectable="0">
          <mxGeometry x="-0.2704" y="-7" relative="1" as="geometry">
            <mxPoint x="-164" y="-24" as="offset" />
          </mxGeometry>
        </mxCell>
        <mxCell id="GA2vL-Xrcvd5V2LU-57q-174" value="" style="endArrow=classic;html=1;rounded=0;labelBackgroundColor=default;strokeColor=default;strokeWidth=5;align=center;verticalAlign=middle;fontFamily=Helvetica;fontSize=40;fontColor=default;shape=connector;entryX=0.898;entryY=0.189;entryDx=0;entryDy=0;entryPerimeter=0;exitX=0;exitY=0.5;exitDx=0;exitDy=0;" parent="1" source="GA2vL-Xrcvd5V2LU-57q-45" target="GA2vL-Xrcvd5V2LU-57q-161" edge="1">
          <mxGeometry width="50" height="50" relative="1" as="geometry">
            <mxPoint x="-2981" y="5323" as="sourcePoint" />
            <mxPoint x="-3187" y="5421" as="targetPoint" />
          </mxGeometry>
        </mxCell>
        <mxCell id="GA2vL-Xrcvd5V2LU-57q-175" value="Tài khoản cần xóa" style="edgeLabel;html=1;align=center;verticalAlign=middle;resizable=0;points=[];fontSize=40;fontFamily=Helvetica;fontColor=default;rotation=0;" parent="GA2vL-Xrcvd5V2LU-57q-174" vertex="1" connectable="0">
          <mxGeometry x="0.2811" y="-9" relative="1" as="geometry">
            <mxPoint x="-46" y="-1" as="offset" />
          </mxGeometry>
        </mxCell>
        <mxCell id="GA2vL-Xrcvd5V2LU-57q-176" value="" style="endArrow=classic;html=1;rounded=0;labelBackgroundColor=default;strokeColor=default;strokeWidth=5;align=center;verticalAlign=middle;fontFamily=Helvetica;fontSize=40;fontColor=default;shape=connector;exitX=0.996;exitY=0.658;exitDx=0;exitDy=0;exitPerimeter=0;entryX=0;entryY=0.75;entryDx=0;entryDy=0;" parent="1" source="GA2vL-Xrcvd5V2LU-57q-161" target="GA2vL-Xrcvd5V2LU-57q-45" edge="1">
          <mxGeometry width="50" height="50" relative="1" as="geometry">
            <mxPoint x="-3137" y="5585" as="sourcePoint" />
            <mxPoint x="-3087" y="5535" as="targetPoint" />
          </mxGeometry>
        </mxCell>
        <mxCell id="GA2vL-Xrcvd5V2LU-57q-177" value="Thông báo xóa thành công/ thất bại" style="edgeLabel;html=1;align=center;verticalAlign=middle;resizable=0;points=[];fontSize=40;fontFamily=Helvetica;fontColor=default;rotation=0;" parent="GA2vL-Xrcvd5V2LU-57q-176" vertex="1" connectable="0">
          <mxGeometry x="-0.4845" y="11" relative="1" as="geometry">
            <mxPoint x="125" y="4" as="offset" />
          </mxGeometry>
        </mxCell>
        <mxCell id="GA2vL-Xrcvd5V2LU-57q-182" value="" style="endArrow=classic;startArrow=classic;html=1;rounded=0;labelBackgroundColor=default;strokeColor=default;strokeWidth=5;align=center;verticalAlign=middle;fontFamily=Helvetica;fontSize=40;fontColor=default;shape=connector;exitX=1;exitY=1;exitDx=0;exitDy=0;" parent="1" source="GA2vL-Xrcvd5V2LU-57q-52" target="GA2vL-Xrcvd5V2LU-57q-160" edge="1">
          <mxGeometry width="50" height="50" relative="1" as="geometry">
            <mxPoint x="-4037" y="4749" as="sourcePoint" />
            <mxPoint x="-3987" y="4699" as="targetPoint" />
          </mxGeometry>
        </mxCell>
        <mxCell id="GA2vL-Xrcvd5V2LU-57q-183" value="Tài khoản" style="edgeLabel;html=1;align=center;verticalAlign=middle;resizable=0;points=[];fontSize=40;fontFamily=Helvetica;fontColor=default;" parent="GA2vL-Xrcvd5V2LU-57q-182" vertex="1" connectable="0">
          <mxGeometry x="-0.2717" y="6" relative="1" as="geometry">
            <mxPoint x="50" y="22" as="offset" />
          </mxGeometry>
        </mxCell>
        <mxCell id="GA2vL-Xrcvd5V2LU-57q-184" value="" style="endArrow=classic;html=1;rounded=0;labelBackgroundColor=default;strokeColor=default;strokeWidth=5;align=center;verticalAlign=middle;fontFamily=Helvetica;fontSize=40;fontColor=default;shape=connector;exitX=0.75;exitY=1;exitDx=0;exitDy=0;entryX=0.5;entryY=0;entryDx=0;entryDy=0;" parent="1" source="GA2vL-Xrcvd5V2LU-57q-52" target="GA2vL-Xrcvd5V2LU-57q-163" edge="1">
          <mxGeometry width="50" height="50" relative="1" as="geometry">
            <mxPoint x="-4275" y="4827" as="sourcePoint" />
            <mxPoint x="-4225" y="4777" as="targetPoint" />
          </mxGeometry>
        </mxCell>
        <mxCell id="GA2vL-Xrcvd5V2LU-57q-185" value="" style="endArrow=classic;html=1;rounded=0;labelBackgroundColor=default;strokeColor=default;strokeWidth=5;align=center;verticalAlign=middle;fontFamily=Helvetica;fontSize=40;fontColor=default;shape=connector;entryX=1;entryY=0;entryDx=0;entryDy=0;exitX=0.334;exitY=1.027;exitDx=0;exitDy=0;exitPerimeter=0;" parent="1" source="GA2vL-Xrcvd5V2LU-57q-45" target="GA2vL-Xrcvd5V2LU-57q-162" edge="1">
          <mxGeometry width="50" height="50" relative="1" as="geometry">
            <mxPoint x="-2639.4442274305557" y="5483" as="sourcePoint" />
            <mxPoint x="-3565" y="5567" as="targetPoint" />
          </mxGeometry>
        </mxCell>
        <mxCell id="GA2vL-Xrcvd5V2LU-57q-186" value="Tài khoản" style="edgeLabel;html=1;align=center;verticalAlign=middle;resizable=0;points=[];fontSize=40;fontFamily=Helvetica;fontColor=default;rotation=-10;" parent="GA2vL-Xrcvd5V2LU-57q-185" vertex="1" connectable="0">
          <mxGeometry x="0.3111" y="-2" relative="1" as="geometry">
            <mxPoint x="87" y="-23" as="offset" />
          </mxGeometry>
        </mxCell>
        <mxCell id="GA2vL-Xrcvd5V2LU-57q-188" value="" style="endArrow=classic;startArrow=classic;html=1;rounded=0;labelBackgroundColor=default;strokeColor=default;strokeWidth=5;align=center;verticalAlign=middle;fontFamily=Helvetica;fontSize=40;fontColor=default;shape=connector;entryX=0.5;entryY=1;entryDx=0;entryDy=0;exitX=0.5;exitY=0;exitDx=0;exitDy=0;" parent="1" source="GA2vL-Xrcvd5V2LU-57q-162" target="GA2vL-Xrcvd5V2LU-57q-52" edge="1">
          <mxGeometry width="50" height="50" relative="1" as="geometry">
            <mxPoint x="-4571" y="5211" as="sourcePoint" />
            <mxPoint x="-4521" y="5161" as="targetPoint" />
          </mxGeometry>
        </mxCell>
        <mxCell id="GA2vL-Xrcvd5V2LU-57q-189" value="Tài khoản" style="edgeLabel;html=1;align=center;verticalAlign=middle;resizable=0;points=[];fontSize=40;fontFamily=Helvetica;fontColor=default;" parent="GA2vL-Xrcvd5V2LU-57q-188" vertex="1" connectable="0">
          <mxGeometry x="0.1703" y="6" relative="1" as="geometry">
            <mxPoint y="1" as="offset" />
          </mxGeometry>
        </mxCell>
        <mxCell id="GA2vL-Xrcvd5V2LU-57q-190" value="" style="endArrow=classic;html=1;rounded=0;labelBackgroundColor=default;strokeColor=default;strokeWidth=5;align=center;verticalAlign=middle;fontFamily=Helvetica;fontSize=40;fontColor=default;shape=connector;exitX=0.912;exitY=0.817;exitDx=0;exitDy=0;exitPerimeter=0;entryX=0.75;entryY=1;entryDx=0;entryDy=0;" parent="1" source="GA2vL-Xrcvd5V2LU-57q-162" target="GA2vL-Xrcvd5V2LU-57q-45" edge="1">
          <mxGeometry width="50" height="50" relative="1" as="geometry">
            <mxPoint x="-4009" y="5915" as="sourcePoint" />
            <mxPoint x="-3959" y="5865" as="targetPoint" />
          </mxGeometry>
        </mxCell>
        <mxCell id="GA2vL-Xrcvd5V2LU-57q-191" value="Thông báo thành công/ thất bại" style="edgeLabel;html=1;align=center;verticalAlign=middle;resizable=0;points=[];fontSize=40;fontFamily=Helvetica;fontColor=default;rotation=-15;" parent="GA2vL-Xrcvd5V2LU-57q-190" vertex="1" connectable="0">
          <mxGeometry x="-0.4081" y="6" relative="1" as="geometry">
            <mxPoint x="22" y="-2" as="offset" />
          </mxGeometry>
        </mxCell>
        <mxCell id="DpccYAr7eh8YXxkKE-uJ-1" value="" style="endArrow=classic;html=1;rounded=0;exitX=0.25;exitY=0;exitDx=0;exitDy=0;entryX=0;entryY=0;entryDx=0;entryDy=0;strokeWidth=5;edgeStyle=orthogonalEdgeStyle;curved=1;" edge="1" parent="1" source="GA2vL-Xrcvd5V2LU-57q-1" target="GA2vL-Xrcvd5V2LU-57q-160">
          <mxGeometry width="50" height="50" relative="1" as="geometry">
            <mxPoint x="-5597" y="4304" as="sourcePoint" />
            <mxPoint x="-5547" y="4254" as="targetPoint" />
            <Array as="points">
              <mxPoint x="-4980" y="1551" />
              <mxPoint x="-5930" y="1551" />
              <mxPoint x="-5930" y="4506" />
              <mxPoint x="-3913" y="4506" />
              <mxPoint x="-3913" y="4645" />
            </Array>
          </mxGeometry>
        </mxCell>
        <mxCell id="DpccYAr7eh8YXxkKE-uJ-5" value="&lt;font style=&quot;font-size: 40px;&quot;&gt;Tài khoản cập nhật&lt;/font&gt;" style="edgeLabel;html=1;align=center;verticalAlign=middle;resizable=0;points=[];fontSize=40;fontFamily=Helvetica;fontColor=default;" vertex="1" connectable="0" parent="DpccYAr7eh8YXxkKE-uJ-1">
          <mxGeometry x="0.3964" y="266" relative="1" as="geometry">
            <mxPoint as="offset" />
          </mxGeometry>
        </mxCell>
        <mxCell id="DpccYAr7eh8YXxkKE-uJ-7" value="" style="endArrow=classic;html=1;rounded=0;labelBackgroundColor=default;strokeColor=default;strokeWidth=5;align=center;verticalAlign=middle;fontFamily=Helvetica;fontSize=40;fontColor=default;shape=connector;exitX=0;exitY=0.5;exitDx=0;exitDy=0;entryX=0.5;entryY=0;entryDx=0;entryDy=0;edgeStyle=orthogonalEdgeStyle;curved=1;" edge="1" parent="1" source="GA2vL-Xrcvd5V2LU-57q-163" target="GA2vL-Xrcvd5V2LU-57q-1">
          <mxGeometry width="50" height="50" relative="1" as="geometry">
            <mxPoint x="-6600" y="3775" as="sourcePoint" />
            <mxPoint x="-6443" y="3018" as="targetPoint" />
            <Array as="points">
              <mxPoint x="-6115" y="5059" />
              <mxPoint x="-6115" y="1460" />
              <mxPoint x="-4916" y="1460" />
            </Array>
          </mxGeometry>
        </mxCell>
        <mxCell id="DpccYAr7eh8YXxkKE-uJ-8" value="Tài khoản" style="edgeLabel;html=1;align=center;verticalAlign=middle;resizable=0;points=[];fontSize=40;fontFamily=Helvetica;fontColor=default;" vertex="1" connectable="0" parent="DpccYAr7eh8YXxkKE-uJ-7">
          <mxGeometry x="-0.5953" y="-384" relative="1" as="geometry">
            <mxPoint x="-1" as="offset" />
          </mxGeometry>
        </mxCell>
        <mxCell id="DpccYAr7eh8YXxkKE-uJ-9" value="" style="endArrow=classic;html=1;rounded=0;labelBackgroundColor=default;strokeColor=default;strokeWidth=5;align=center;verticalAlign=middle;fontFamily=Helvetica;fontSize=40;fontColor=default;shape=connector;exitX=1;exitY=0;exitDx=0;exitDy=0;edgeStyle=orthogonalEdgeStyle;curved=1;entryX=1;entryY=0;entryDx=0;entryDy=0;" edge="1" parent="1" source="GA2vL-Xrcvd5V2LU-57q-3" target="GA2vL-Xrcvd5V2LU-57q-160">
          <mxGeometry width="50" height="50" relative="1" as="geometry">
            <mxPoint x="-1457" y="4364" as="sourcePoint" />
            <mxPoint x="-1407" y="4314" as="targetPoint" />
            <Array as="points">
              <mxPoint x="-2096" y="1383" />
              <mxPoint x="-640" y="1383" />
              <mxPoint x="-640" y="4499" />
              <mxPoint x="-3224" y="4499" />
              <mxPoint x="-3224" y="4645" />
            </Array>
          </mxGeometry>
        </mxCell>
        <mxCell id="DpccYAr7eh8YXxkKE-uJ-11" value="Tài khoản cập nhật" style="edgeLabel;html=1;align=center;verticalAlign=middle;resizable=0;points=[];fontSize=40;fontFamily=Helvetica;fontColor=default;" vertex="1" connectable="0" parent="DpccYAr7eh8YXxkKE-uJ-9">
          <mxGeometry x="0.0136" y="-116" relative="1" as="geometry">
            <mxPoint x="48" y="-222" as="offset" />
          </mxGeometry>
        </mxCell>
        <mxCell id="DpccYAr7eh8YXxkKE-uJ-12" value="" style="endArrow=classic;html=1;rounded=0;labelBackgroundColor=default;strokeColor=default;strokeWidth=5;align=center;verticalAlign=middle;fontFamily=Helvetica;fontSize=40;fontColor=default;shape=connector;exitX=1;exitY=0;exitDx=0;exitDy=0;entryX=1;entryY=0;entryDx=0;entryDy=0;edgeStyle=orthogonalEdgeStyle;curved=1;" edge="1" parent="1" source="GA2vL-Xrcvd5V2LU-57q-163" target="GA2vL-Xrcvd5V2LU-57q-3">
          <mxGeometry width="50" height="50" relative="1" as="geometry">
            <mxPoint x="-1313" y="5048" as="sourcePoint" />
            <mxPoint x="-1263" y="4998" as="targetPoint" />
            <Array as="points">
              <mxPoint x="-260" y="4995" />
              <mxPoint x="-260" y="1143" />
              <mxPoint x="-2096" y="1143" />
            </Array>
          </mxGeometry>
        </mxCell>
        <mxCell id="DpccYAr7eh8YXxkKE-uJ-13" value="Tài khoản" style="edgeLabel;html=1;align=center;verticalAlign=middle;resizable=0;points=[];fontSize=40;fontFamily=Helvetica;fontColor=default;" vertex="1" connectable="0" parent="DpccYAr7eh8YXxkKE-uJ-12">
          <mxGeometry x="-0.0807" y="281" relative="1" as="geometry">
            <mxPoint as="offset" />
          </mxGeometry>
        </mxCell>
      </root>
    </mxGraphModel>
  </diagram>
</mxfile>
